<?xml version="1.0" encoding="UTF-8"?>
<svg id="Layer_1" xmlns="http://www.w3.org/2000/svg" viewBox="0 0 504.59 21.38">
  <defs>
    <style>
      .cls-1 {
        fill: #bd945a;
      }
    </style>
  </defs>
  <g>
    <path class="cls-1" d="M247.58,21.38c-.14,0-.27,0-.41-.01-.73.01-7.21-.1-11.64-8.11-1.47-2.61-3.45-5.06-5.17-6.38l-.26-.21c-2.21-1.8-5.15-2.34-7.87-1.46-2.6.84-4.49,2.82-5.18,5.42-.05.2-.1.41-.14.62-.36,1.87.1,3.79,1.31,5.4,1.72,2.3,4.01,3.31,6.29,2.79,2.05-.47,3.63-2.14,4.03-4.24.2-1.07-.07-2.21-.75-3.14-1.02-1.39-2.38-2.01-3.71-1.71-1.19.27-2.12,1.24-2.35,2.46-.24,1.26.57,2.49,1.8,2.73l-.35,1.77c-2.2-.43-3.65-2.6-3.22-4.84.37-1.93,1.83-3.45,3.72-3.88,2.04-.46,4.12.44,5.56,2.4.98,1.33,1.37,2.98,1.07,4.54-.54,2.8-2.65,5.02-5.4,5.66-2.95.68-5.99-.61-8.13-3.46-1.52-2.02-2.1-4.45-1.64-6.82.05-.25.11-.5.17-.74.85-3.2,3.17-5.63,6.36-6.66,3.3-1.07,6.88-.41,9.56,1.78l.24.2c1.91,1.47,4.02,4.06,5.63,6.91,4.08,7.36,10,7.18,10.05,7.19h.06s.06,0,.06,0c1.02.08,2.01-.24,2.79-.91.81-.69,1.29-1.65,1.38-2.72.13-1.63-1.06-3.07-2.66-3.21-.56-.06-1.16.18-1.6.61-.66.65-.9,1.41-.65,2.09.21.58.73.98,1.33,1.03l-.14,1.79c-1.3-.1-2.43-.97-2.88-2.21-.49-1.36-.08-2.85,1.09-3.99.81-.79,1.94-1.21,3.02-1.11,2.57.23,4.49,2.54,4.29,5.14-.12,1.55-.83,2.95-2,3.95-1.03.88-2.31,1.35-3.64,1.35Z"/>
    <path class="cls-1" d="M257.11,21.38c-1.33,0-2.61-.47-3.64-1.35-1.17-1-1.88-2.4-2-3.95-.2-2.61,1.72-4.91,4.29-5.14,1.08-.1,2.21.32,3.02,1.11,1.17,1.14,1.58,2.63,1.09,3.99-.45,1.24-1.58,2.11-2.88,2.21l-.14-1.79c.6-.05,1.12-.45,1.33-1.03.25-.68.01-1.45-.65-2.09-.44-.43-1.04-.66-1.6-.61-1.59.14-2.78,1.58-2.66,3.21.08,1.07.57,2.03,1.38,2.72.78.67,1.77.99,2.79.91h.06s.06,0,.06,0c.24,0,6,.13,10.05-7.18,1.61-2.86,3.72-5.45,5.65-6.93l.22-.18c2.68-2.18,6.26-2.85,9.56-1.78,3.19,1.04,5.51,3.46,6.36,6.66.06.24.12.49.17.74.46,2.38-.12,4.8-1.64,6.82-2.14,2.85-5.18,4.14-8.13,3.46-2.74-.64-4.86-2.86-5.4-5.66-.3-1.56.09-3.22,1.07-4.54,1.45-1.96,3.53-2.86,5.56-2.4,1.89.43,3.35,1.95,3.72,3.88.43,2.23-1.02,4.4-3.22,4.84l-.35-1.77c1.24-.24,2.05-1.47,1.8-2.73-.23-1.23-1.16-2.19-2.35-2.46-1.33-.3-2.69.32-3.71,1.71-.68.92-.95,2.07-.75,3.14.4,2.1,1.99,3.77,4.04,4.24,2.27.53,4.56-.49,6.29-2.79,1.21-1.61,1.68-3.53,1.31-5.4-.04-.21-.09-.42-.14-.62-.69-2.6-2.58-4.57-5.18-5.41-2.72-.88-5.66-.34-7.87,1.46l-.24.19c-1.74,1.34-3.73,3.78-5.2,6.4-4.43,8-10.89,8.13-11.64,8.1-.14,0-.27.01-.41.01Z"/>
    <path class="cls-1" d="M252.35,11.35c-1.43,0-2.58-.97-2.86-2.41h0c-.64-3.32,1.99-7.55,2.1-7.73l.76-1.21.76,1.21c.11.18,2.74,4.4,2.1,7.73-.28,1.44-1.43,2.41-2.86,2.41ZM251.25,8.59c.14.7.65.95,1.09.95s.96-.25,1.09-.95c.31-1.61-.45-3.66-1.09-5.01-.64,1.34-1.41,3.39-1.09,5.01h0Z"/>
  </g>
  <g>
    <path class="cls-1" d="M496.9,13.66c-.37,0-.74-.03-1.1-.1-1.42-.29-2.38-1.45-2.38-2.89s.96-2.61,2.38-2.89h0c3.28-.66,7.45,2.02,7.63,2.14l1.16.75-1.16.75c-.16.1-3.48,2.24-6.53,2.24ZM496.16,9.53c-.69.14-.93.67-.93,1.13s.25.99.93,1.13c1.51.3,3.53-.44,4.94-1.13-1.41-.69-3.43-1.43-4.94-1.13h0Z"/>
    <path class="cls-1" d="M490.06,11.57c-.07,0-.14,0-.22,0h-.01c-.56,0-3.89-.18-6.15-4.26-.7-1.24-1.64-2.4-2.45-3.03l-.14-.11c-.98-.79-2.28-1.03-3.48-.64-1.14.37-1.97,1.23-2.27,2.37-.02.09-.05.18-.06.28-.16.8.05,1.63.57,2.32.74.99,1.71,1.43,2.66,1.21.84-.2,1.49-.88,1.66-1.75.08-.41-.03-.85-.29-1.2-.4-.55-.89-.79-1.38-.68-.42.09-.74.43-.82.87-.07.38.17.75.54.83l-.35,1.77c-1.34-.26-2.22-1.58-1.96-2.93.22-1.14,1.08-2.03,2.19-2.28,1.19-.27,2.4.24,3.23,1.36.56.76.78,1.71.61,2.61-.3,1.57-1.49,2.81-3.02,3.17-1.65.38-3.33-.32-4.5-1.89-.82-1.09-1.15-2.46-.9-3.75.03-.13.06-.27.09-.4.46-1.71,1.75-3.07,3.46-3.62,1.79-.58,3.72-.22,5.17.96l.12.1c.98.75,2.08,2.09,2.9,3.56,1.27,2.3,2.9,3.02,3.83,3.24-.37-.25-.66-.61-.81-1.04-.31-.85-.06-1.76.65-2.46.49-.48,1.19-.74,1.85-.68,1.52.14,2.66,1.5,2.54,3.04-.07.89-.48,1.69-1.15,2.27-.59.51-1.33.78-2.1.78ZM490.58,7.27c-.14,0-.29.07-.4.18-.2.19-.27.39-.21.56.03.09.12.2.27.21l-.12,1.55c.32-.01.63-.13.89-.35.31-.26.49-.63.53-1.04.04-.56-.36-1.06-.91-1.11-.01,0-.02,0-.04,0Z"/>
    <path class="cls-1" d="M478.77,19.8c-.57,0-1.15-.09-1.71-.27-1.71-.55-3-1.91-3.46-3.62-.04-.13-.07-.26-.09-.4-.25-1.29.08-2.65.9-3.74,1.17-1.56,2.86-2.27,4.5-1.89,1.54.36,2.72,1.6,3.02,3.17.17.9-.05,1.85-.61,2.61-.83,1.12-2.03,1.64-3.23,1.36-1.11-.25-1.98-1.15-2.19-2.28-.26-1.35.62-2.67,1.96-2.93l.35,1.77c-.37.07-.61.44-.54.83.08.43.4.77.82.87.49.11.98-.13,1.38-.68.26-.36.37-.8.29-1.2-.17-.87-.82-1.55-1.66-1.75-.94-.22-1.91.22-2.66,1.21-.52.7-.73,1.52-.57,2.32.02.1.04.19.06.28.3,1.14,1.13,2,2.27,2.38,1.2.39,2.5.15,3.48-.65l.12-.1c.83-.64,1.77-1.8,2.47-3.05,2.27-4.1,5.62-4.22,6.16-4.25.85-.06,1.67.22,2.32.77.67.57,1.08,1.38,1.15,2.27.12,1.54-1.02,2.9-2.54,3.04-.67.06-1.36-.19-1.86-.68-.71-.69-.95-1.61-.65-2.46.16-.44.45-.8.82-1.05-.93.22-2.56.93-3.83,3.23-.83,1.47-1.92,2.81-2.93,3.58l-.1.08c-1,.81-2.22,1.23-3.46,1.23ZM490.11,11.57l.12,1.55c-.15.01-.24.12-.27.21-.06.17.02.37.21.56.12.12.3.19.44.17.54-.05.95-.54.91-1.11-.03-.41-.22-.78-.53-1.04-.25-.22-.56-.34-.89-.35Z"/>
  </g>
  <rect class="cls-1" x="288.7" y="9.77" width="189.06" height="1.8"/>
  <g>
    <g>
      <path class="cls-1" d="M7.69,13.66c-3.05,0-6.37-2.14-6.53-2.24l-1.16-.75,1.16-.75c.18-.11,4.34-2.8,7.63-2.14h0c1.42.29,2.38,1.45,2.38,2.89s-.96,2.61-2.38,2.89c-.36.07-.73.1-1.1.1ZM3.49,10.66c1.41.69,3.43,1.43,4.94,1.13.69-.14.93-.67.93-1.13s-.25-.99-.93-1.13h0c-1.52-.3-3.53.43-4.94,1.13Z"/>
      <path class="cls-1" d="M14.53,11.57c-.77,0-1.51-.27-2.1-.78-.67-.57-1.08-1.38-1.15-2.27-.12-1.54,1.02-2.9,2.54-3.04.67-.05,1.36.2,1.86.68.71.69.95,1.61.65,2.46-.16.44-.45.8-.82,1.05.93-.22,2.56-.93,3.83-3.23.83-1.47,1.92-2.81,2.93-3.58l.1-.08c1.45-1.18,3.38-1.54,5.17-.96,1.71.55,3,1.91,3.46,3.62.03.13.06.26.09.4.25,1.29-.08,2.66-.9,3.75-1.17,1.56-2.86,2.27-4.5,1.89-1.54-.36-2.72-1.6-3.02-3.17-.17-.9.05-1.85.61-2.61.83-1.12,2.04-1.63,3.23-1.36,1.12.25,1.98,1.15,2.19,2.28.26,1.35-.62,2.67-1.96,2.93l-.35-1.77c.37-.07.61-.44.54-.83-.08-.43-.4-.77-.82-.87-.49-.11-.98.13-1.38.68-.26.36-.37.8-.29,1.2.17.87.82,1.55,1.66,1.75.94.22,1.91-.22,2.66-1.21.52-.7.73-1.52.57-2.32-.02-.09-.04-.19-.06-.28-.3-1.14-1.13-2-2.27-2.37-1.2-.39-2.5-.15-3.48.64l-.12.1c-.83.64-1.77,1.8-2.47,3.05-2.27,4.1-5.59,4.27-6.16,4.25-.07,0-.15,0-.22,0ZM14.01,7.27s-.02,0-.04,0c-.54.05-.95.54-.91,1.11.03.41.22.78.53,1.04.25.22.56.34.89.35l-.12-1.55c.15-.01.24-.12.27-.21.06-.17-.02-.37-.21-.56-.11-.11-.27-.18-.4-.18Z"/>
      <path class="cls-1" d="M25.82,19.8c-1.24,0-2.47-.42-3.46-1.23l-.12-.1c-.98-.75-2.08-2.09-2.9-3.56-1.27-2.3-2.9-3.02-3.83-3.24.37.25.66.61.81,1.04.31.85.06,1.77-.65,2.46-.5.48-1.19.74-1.86.68-1.52-.14-2.66-1.5-2.54-3.04.07-.89.48-1.7,1.15-2.27.65-.56,1.47-.83,2.32-.77h.01c.56,0,3.89.18,6.15,4.26.7,1.24,1.64,2.4,2.45,3.03l.14.11c.98.79,2.28,1.04,3.48.64,1.14-.37,1.97-1.24,2.27-2.37.02-.09.05-.18.06-.28.15-.8-.05-1.62-.57-2.32-.74-.99-1.71-1.44-2.66-1.21-.84.19-1.49.88-1.66,1.75-.08.41.03.85.29,1.2.4.55.89.79,1.38.68.42-.09.74-.43.82-.87.07-.38-.17-.75-.54-.83l.35-1.77c1.34.26,2.22,1.58,1.96,2.93-.22,1.13-1.08,2.03-2.19,2.28-1.19.27-2.4-.24-3.23-1.36-.56-.76-.78-1.71-.61-2.61.3-1.57,1.49-2.81,3.02-3.17,1.65-.38,3.33.32,4.5,1.89.82,1.09,1.15,2.46.9,3.75-.03.14-.06.27-.09.4-.46,1.72-1.75,3.07-3.46,3.62-.56.18-1.14.27-1.71.27ZM14.48,11.57c-.32.01-.63.13-.89.35-.31.26-.49.63-.53,1.04-.04.56.36,1.06.91,1.11.14.02.32-.06.44-.17.2-.19.27-.39.21-.56-.03-.09-.12-.2-.27-.21l.12-1.55Z"/>
    </g>
    <rect class="cls-1" x="26.83" y="9.77" width="189.06" height="1.8"/>
  </g>
</svg>