<?xml version="1.0" encoding="UTF-8"?>
<svg id="Layer_1" xmlns="http://www.w3.org/2000/svg" viewBox="0 0 517.47 82.5">
  <defs>
    <style>
      .cls-1 {
        fill: #bd945a;
      }
    </style>
  </defs>
  <path class="cls-1" d="M377.95,12.21c4.57-1.75,5.35-8.3,1.2-11.05-4.67-3.1-10.58.49-11.88,5.41-1.49,5.63,1.75,10.71,4.57,15.3s5.68,9.15,8.78,13.55c6.17,8.75,13.42,17.1,22.74,22.59,8.82,5.2,19.36,7.9,29.55,6.11,5.67-.99,10.95-3.58,15.23-7.41,4.27-3.81,7.68-9.09,7.77-14.97.05-3.22-4.95-3.22-5,0-.06,4.01-2.4,7.57-5.14,10.33s-6.28,4.98-10.09,6.21c-7.96,2.57-16.63,1.4-24.23-1.78-16.83-7.03-26.93-23.55-36.06-38.42-1.35-2.2-2.82-4.45-3.34-7.03-.34-1.69-.2-3.94,1.17-5.18.95-.86,2.64-1.23,3.43-.33.17.2.29.82.24,1.16-.03.21-.15.38-.2.56.03-.11-.13.16-.07.13-1.26.48-2.13,1.68-1.75,3.08.33,1.21,1.81,2.23,3.08,1.75h0Z"/>
  <path class="cls-1" d="M472.54,43.72c5.5-.67,10.05-4.04,13.21-8.48s4.04-10.31,2.56-15.54l-2.41,3.16c4.96.55,9.07,5.28,9.22,10.19.05,1.43,1.11,2.4,2.5,2.5,5.97.44,11.62,2.94,15.63,7.43,2.15,2.41,5.67-1.14,3.54-3.54-4.9-5.49-11.91-8.36-19.16-8.9l2.5,2.5c-.25-7.85-6.49-14.32-14.22-15.19-1.64-.18-2.81,1.74-2.41,3.16,1.11,3.9.45,8.01-1.83,11.37-2.02,2.97-5.42,5.87-9.11,6.32-1.34.16-2.5,1.03-2.5,2.5,0,1.22,1.15,2.66,2.5,2.5h0Z"/>
  <path class="cls-1" d="M465.37,41.22c0,.2-.02.4-.04.61l.09-.66c-.04.23-.08.47-.15.69-.03.09-.07.18-.1.28-.09.28.28-.57.09-.23-.11.2-.23.4-.35.59-.21.33.35-.38.14-.19-.08.08-.15.17-.23.25-.07.07-.14.13-.21.2-.31.31.51-.34.15-.11-.18.12-.36.22-.54.33-.38.22.19-.04.23-.08-.04.05-.27.1-.33.12-.23.07-.46.12-.69.15l.66-.09c-.41.05-.81.05-1.21,0l.66.09c-.23-.04-.47-.08-.69-.15-.09-.03-.18-.07-.28-.1-.28-.09.57.28.23.09-.2-.11-.4-.23-.59-.35-.33-.21.38.35.19.14-.08-.08-.17-.15-.25-.23-.07-.07-.13-.14-.2-.21-.31-.31.34.51.11.15-.12-.18-.22-.36-.33-.54-.22-.38.04.19.08.23-.05-.04-.1-.27-.12-.33-.07-.23-.12-.46-.15-.69l.09.66c-.05-.41-.05-.81,0-1.21l-.09.66c.04-.23.08-.47.15-.69.03-.09.07-.18.1-.28.09-.28-.28.57-.09.23.11-.2.23-.4.35-.59.21-.33-.35.38-.14.19.08-.08.15-.17.23-.25.07-.07.14-.13.21-.2.31-.31-.51.34-.15.11.18-.12.36-.22.54-.33.38-.22-.19.04-.23.08.04-.05.27-.1.33-.12.23-.07.46-.12.69-.15l-.66.09c.41-.05.81-.05,1.21,0l-.66-.09c.23.04.47.08.69.15.09.03.18.07.28.1.28.09-.57-.28-.23-.09.2.11.4.23.59.35.33.21-.38-.35-.19-.14.08.08.17.15.25.23.07.07.13.14.2.21.31.31-.34-.51-.11-.15.12.18.22.36.33.54.22.38-.04-.19-.08-.23.05.04.1.27.12.33.07.23.12.46.15.69l-.09-.66c.03.2.04.4.04.61.02,1.31,1.14,2.56,2.5,2.5s2.52-1.1,2.5-2.5c-.04-2.98-1.89-5.48-4.65-6.51-2.53-.95-5.7-.1-7.42,1.98-1,1.21-1.54,2.55-1.69,4.11-.13,1.33.26,2.79.94,3.94s1.69,2.11,2.88,2.66c1.45.67,2.93.85,4.5.56,3.17-.57,5.4-3.61,5.45-6.74.02-1.31-1.16-2.56-2.5-2.5s-2.48,1.1-2.5,2.5Z"/>
  <g>
    <path class="cls-1" d="M258.75,47.86c15.26,0,30.53-.32,45.79-.36,8.81-.03,17.62-.02,26.43.18,6.49.14,13.02.37,19.4,1.35,6.04.93,12.06,2.26,17.8,4.38,5.36,1.98,10.58,4.78,14.44,9.08,1.13,1.26,3.08.76,3.93-.51,6.67-10.02,13.81-20.72,24.82-26.4,1.71-.88,3.46-1.5,5.57-2.03,2.23-.55,4.04-.83,6.25-.97,4.46-.29,8.53,0,12.67,1.54.16.06.32.12.47.18-.38-.16.46.21.53.25.5.24.99.51,1.46.8.13.08.26.16.39.25.08.05.81.61.4.28.39.32.77.67,1.11,1.04.1.1.19.21.28.32.18.22.18.22,0,0,.08.11.16.23.24.34.11.18.22.35.32.54.04.07.35.74.23.45.29.69.4,1.44.41,2.22.04,3.22,5.04,3.22,5,0-.13-10.24-12.17-13.19-20.4-13.29-4.91-.06-10.03.65-14.61,2.48-5.93,2.37-11.11,6.45-15.5,11.03-5.34,5.58-9.68,12.03-13.95,18.44l3.93-.51c-7.45-8.3-19.2-11.89-29.81-13.94-7.24-1.4-14.47-2.02-21.83-2.24-17.88-.54-35.78-.28-53.67-.1-7.36.07-14.72.19-22.08.2-3.22,0-3.22,5,0,5h0Z"/>
    <path class="cls-1" d="M376.65,75.12c-.3-.12.09.06.11.1-.13-.25.01.05.06.12-.07-.11.02.13.05.28.08.32.05.81-.05,1.09-.15.39-.32.53-.86.69-.58.17-1.25.07-1.87-.21-3.65-1.63-1.92-6.99-.56-9.54,2.2-4.14,4.86-8.1,7.41-12.03s5.01-7.54,7.82-11.08c5.52-6.92,11.98-13.21,19.95-17.23,7.23-3.65,15.82-5.57,23.85-3.9,4.47.93,8.67,2.89,12.09,5.94s6.24,6.87,6.31,11.43c.05,3.21,5.05,3.22,5,0-.16-10.55-10.25-18.82-19.65-21.59s-20.53-.9-29.59,3.54c-9.67,4.73-17.29,12.63-23.69,21.12-3.28,4.36-6.25,8.93-9.14,13.56s-6.55,9.36-6.93,14.89c-.19,2.8.68,5.9,2.76,7.88s5.16,2.85,7.88,1.95c5.45-1.81,5.78-9.76.39-11.82-1.26-.48-2.74.53-3.08,1.75-.39,1.41.48,2.59,1.75,3.08h0Z"/>
    <path class="cls-1" d="M472.56,43.79c3.69.45,7.09,3.35,9.11,6.32,2.28,3.36,2.94,7.47,1.83,11.37-.4,1.42.77,3.35,2.41,3.16,7.73-.86,13.97-7.33,14.22-15.19l-2.5,2.5c7.25-.54,14.26-3.4,19.16-8.9,2.14-2.39-1.39-5.94-3.54-3.54-4.01,4.49-9.65,6.99-15.63,7.43-1.38.1-2.45,1.06-2.5,2.5-.16,4.91-4.26,9.63-9.22,10.19l2.41,3.16c1.48-5.23.61-11.09-2.56-15.54s-7.71-7.81-13.21-8.48c-1.34-.16-2.5,1.27-2.5,2.5,0,1.49,1.15,2.34,2.5,2.5h0Z"/>
  </g>
  <path class="cls-1" d="M70.83,41.71c.19,10.15,11.93,13.13,20.17,13.28,4.91.09,10.04-.6,14.63-2.39,6.01-2.34,11.25-6.46,15.68-11.08,5.35-5.59,9.71-12.05,13.98-18.47l-3.93.51c7.36,8.14,18.77,11.74,29.21,13.82,7.31,1.46,14.63,2.12,22.06,2.35,17.93.56,35.9.29,53.84.12,7.42-.07,14.85-.2,22.28-.2,3.22,0,3.22-5,0-5h-.03c-3.22,0-3.22,5,0,5,15.59,0,31.18.33,46.77.36s31.77.64,47.33-1.89c11.73-1.91,25.02-5.41,33.29-14.56l-3.93-.51c7.29,10.96,15.4,23.14,27.82,28.78,8.65,3.93,20.23,4.63,28.98.61,4.37-2.01,7.58-5.77,7.67-10.72.06-3.22-4.94-3.22-5,0-.14,7.37-11.34,8.42-16.91,8.28-4.13-.11-8.42-.8-12.22-2.48-5.25-2.33-9.76-6.2-13.63-10.38-4.7-5.08-8.57-10.85-12.4-16.6-.85-1.27-2.79-1.77-3.93-.51-7.14,7.89-18.44,10.96-28.55,12.83-6.78,1.25-13.53,1.72-20.41,1.91-17.74.49-35.5.25-53.24.07-7.22-.07-14.43-.19-21.65-.19v5h.03v-5c-15.2,0-30.41.32-45.61.36-8.85.03-17.7.02-26.54-.18-6.48-.14-12.95-.36-19.37-1.34-11.26-1.72-24.36-4.66-32.33-13.47-1.14-1.26-3.08-.76-3.93.51-6.59,9.9-13.62,20.43-24.39,26.17-7.11,3.79-16.83,4.49-24.44,1.86-3.25-1.13-6.25-3.3-6.32-6.84-.06-3.21-5.06-3.22-5,0h0Z"/>
  <path class="cls-1" d="M140.85,7.39c.3.12-.09-.06-.11-.1.13.25-.01-.05-.06-.12.07.11-.02-.13-.05-.28-.08-.32-.05-.81.05-1.09.15-.39.32-.53.86-.69.58-.17,1.25-.07,1.87.21,3.65,1.63,1.92,6.99.56,9.54-2.2,4.14-4.86,8.1-7.41,12.03s-5.01,7.54-7.82,11.08c-5.52,6.92-11.98,13.21-19.95,17.23-7.23,3.65-15.82,5.57-23.85,3.9-4.47-.93-8.67-2.89-12.09-5.94s-6.24-6.87-6.31-11.43c-.05-3.21-5.05-3.22-5,0,.16,10.55,10.25,18.82,19.65,21.59s20.53.9,29.59-3.54c9.67-4.73,17.29-12.63,23.69-21.12,3.28-4.36,6.25-8.93,9.14-13.56s6.55-9.36,6.93-14.89c.19-2.8-.68-5.9-2.76-7.88s-5.16-2.85-7.88-1.95c-5.45,1.81-5.78,9.76-.39,11.82,1.26.48,2.74-.53,3.08-1.75.39-1.41-.48-2.59-1.75-3.08h0Z"/>
  <path class="cls-1" d="M44.94,38.72c-3.69-.45-7.09-3.35-9.11-6.32-2.28-3.36-2.94-7.47-1.83-11.37.4-1.42-.77-3.35-2.41-3.16-7.73.86-13.97,7.33-14.22,15.19l2.5-2.5c-7.25.54-14.26,3.4-19.16,8.9-2.14,2.39,1.39,5.94,3.54,3.54,4.01-4.49,9.65-6.99,15.63-7.43,1.38-.1,2.45-1.06,2.5-2.5.16-4.91,4.26-9.63,9.22-10.19l-2.41-3.16c-1.48,5.23-.61,11.09,2.56,15.54s7.71,7.81,13.21,8.48c1.34.16,2.5-1.27,2.5-2.5,0-1.49-1.15-2.34-2.5-2.5h0Z"/>
  <path class="cls-1" d="M47.1,41.22c.04,2.98,1.89,5.48,4.65,6.51,2.53.95,5.7.1,7.42-1.98,1-1.21,1.54-2.55,1.69-4.11.13-1.33-.26-2.79-.94-3.94s-1.69-2.11-2.88-2.66c-1.45-.67-2.93-.85-4.5-.56-3.17.57-5.4,3.61-5.45,6.74-.02,1.31,1.16,2.56,2.5,2.5s2.48-1.1,2.5-2.5c0-.2.02-.4.04-.61l-.09.66c.04-.23.08-.47.15-.69.03-.09.07-.18.1-.28.09-.28-.28.57-.09.23.11-.2.23-.4.35-.59.21-.33-.35.38-.14.19.08-.08.15-.17.23-.25.07-.07.14-.13.21-.2.31-.31-.51.34-.15.11.18-.12.36-.22.54-.33.38-.22-.19.04-.23.08.04-.05.27-.1.33-.12.23-.07.46-.12.69-.15l-.66.09c.41-.05.81-.05,1.21,0l-.66-.09c.23.04.47.08.69.15.09.03.18.07.28.1.28.09-.57-.28-.23-.09.2.11.4.23.59.35.33.21-.38-.35-.19-.14.08.08.17.15.25.23.07.07.13.14.2.21.31.31-.34-.51-.11-.15.12.18.22.36.33.54.22.38-.04-.19-.08-.23.05.04.1.27.12.33.07.23.12.46.15.69l-.09-.66c.05.41.05.81,0,1.21l.09-.66c-.04.23-.08.47-.15.69-.03.09-.07.18-.1.28-.09.28.28-.57.09-.23-.11.2-.23.4-.35.59-.21.33.35-.38.14-.19-.08.08-.15.17-.23.25-.07.07-.14.13-.21.2-.31.31.51-.34.15-.11-.18.12-.36.22-.54.33-.38.22.19-.04.23-.08-.04.05-.27.1-.33.12-.23.07-.46.12-.69.15l.66-.09c-.41.05-.81.05-1.21,0l.66.09c-.23-.04-.47-.08-.69-.15-.09-.03-.18-.07-.28-.1-.28-.09.57.28.23.09-.2-.11-.4-.23-.59-.35-.33-.21.38.35.19.14-.08-.08-.17-.15-.25-.23-.07-.07-.13-.14-.2-.21-.31-.31.34.51.11.15-.12-.18-.22-.36-.33-.54-.22-.38.04.19.08.23-.05-.04-.1-.27-.12-.33-.07-.23-.12-.46-.15-.69l.09.66c-.03-.2-.04-.4-.04-.61-.02-1.31-1.14-2.56-2.5-2.5s-2.52,1.1-2.5,2.5Z"/>
  <g>
    <path class="cls-1" d="M258.72,42.86c-15.52,0-31.05-.32-46.57-.36-8.84-.02-17.68-.01-26.52.2-6.95.17-13.81.54-20.69,1.64-6.17.99-12.32,2.41-18.15,4.7s-11.3,5.29-15.45,9.91l3.93.51c-7.26-10.9-15.27-22.91-27.54-28.65-4.55-2.13-9.6-3.1-14.61-3.28s-9.87.44-14.35,2.41-7.91,5.78-7.97,10.86c-.04,3.22,4.96,3.22,5,0,0-.23.01-.46.03-.68.04-.72-.11.48.02-.21.08-.42.2-.83.33-1.24.03-.1.18-.44-.02.01.08-.19.18-.38.28-.56s.21-.36.32-.54c.08-.12.15-.23.24-.34-.18.23-.18.23,0,0,.23-.27.47-.53.73-.78.16-.15.32-.29.49-.44.54-.47-.4.27.2-.16.77-.55,1.58-1.01,2.44-1.41.52-.24,1.35-.55,2.26-.82,1.04-.31,2.1-.55,3.17-.73.86-.15,1.65-.24,2.73-.31,1.17-.08,2.35-.11,3.52-.08,4.06.08,8.61.85,12.09,2.35,5.4,2.32,10.03,6.28,13.98,10.57,4.68,5.07,8.54,10.82,12.35,16.55.84,1.27,2.79,1.77,3.93.51,7.05-7.85,18.3-10.91,28.3-12.79,6.84-1.28,13.65-1.76,20.63-1.95,17.74-.49,35.51-.25,53.26-.08,7.22.07,14.44.19,21.66.19,3.22,0,3.22-5,0-5h0Z"/>
    <path class="cls-1" d="M139.49,70.29c-4.57,1.75-5.35,8.3-1.2,11.05,4.67,3.1,10.58-.49,11.88-5.41,1.49-5.63-1.75-10.71-4.57-15.3s-5.68-9.15-8.78-13.55c-6.17-8.75-13.42-17.1-22.74-22.59-8.82-5.2-19.36-7.9-29.55-6.11-5.67.99-10.95,3.58-15.23,7.41s-7.68,9.09-7.77,14.97c-.05,3.22,4.95,3.22,5,0,.06-4.01,2.4-7.57,5.14-10.33s6.28-4.98,10.09-6.21c7.96-2.57,16.63-1.4,24.23,1.78,16.83,7.03,26.93,23.55,36.06,38.42,1.35,2.2,2.82,4.45,3.34,7.03.34,1.69.2,3.94-1.17,5.18-.95.86-2.64,1.23-3.43.33-.17-.2-.29-.82-.24-1.16.03-.21.15-.38.2-.56-.03.11.13-.16.07-.13,1.26-.48,2.13-1.68,1.75-3.08-.33-1.21-1.81-2.23-3.08-1.75h0Z"/>
    <path class="cls-1" d="M44.91,38.79c-5.5.67-10.05,4.04-13.21,8.48s-4.04,10.31-2.56,15.54l2.41-3.16c-4.96-.55-9.07-5.28-9.22-10.19-.05-1.43-1.11-2.4-2.5-2.5-5.97-.44-11.62-2.94-15.63-7.43-2.15-2.41-5.67,1.14-3.54,3.54,4.9,5.49,11.91,8.36,19.16,8.9l-2.5-2.5c.25,7.85,6.49,14.32,14.22,15.19,1.64.18,2.81-1.74,2.41-3.16-1.11-3.9-.45-8.01,1.83-11.37,2.02-2.97,5.42-5.87,9.11-6.32,1.34-.16,2.5-1.03,2.5-2.5,0-1.22-1.15-2.66-2.5-2.5h0Z"/>
  </g>
</svg>