<?xml version="1.0" encoding="UTF-8"?>
<svg id="Layer_1" xmlns="http://www.w3.org/2000/svg" xmlns:xlink="http://www.w3.org/1999/xlink" viewBox="0 0 106.58 108.4">
  <defs>
    <style>
      .cls-1 {
        fill: url(#Degradado_sin_nombre_7-2);
      }

      .cls-2 {
        fill: url(#Degradado_sin_nombre_7-6);
      }

      .cls-3 {
        fill: url(#Degradado_sin_nombre_7-4);
      }

      .cls-4 {
        fill: url(#Degradado_sin_nombre_7-7);
      }

      .cls-5 {
        fill: url(#Degradado_sin_nombre_7-5);
      }

      .cls-6 {
        fill: url(#Degradado_sin_nombre_7-8);
      }

      .cls-7 {
        fill: url(#Degradado_sin_nombre_7-3);
      }

      .cls-8 {
        fill: url(#Degradado_sin_nombre_7);
      }
    </style>
    <linearGradient id="Degradado_sin_nombre_7" data-name="Degradado sin nombre 7" x1="-77.15" y1="140.34" x2="288.38" y2="-177.7" gradientUnits="userSpaceOnUse">
      <stop offset="0" stop-color="#ffe4a2"/>
      <stop offset=".37" stop-color="#d8ab66"/>
      <stop offset=".62" stop-color="#ffe4a2"/>
      <stop offset="1" stop-color="#d8ab66"/>
    </linearGradient>
    <linearGradient id="Degradado_sin_nombre_7-2" data-name="Degradado sin nombre 7" x1="-68.99" y1="149.72" x2="296.54" y2="-168.32" xlink:href="#Degradado_sin_nombre_7"/>
    <linearGradient id="Degradado_sin_nombre_7-3" data-name="Degradado sin nombre 7" x1="-65.83" y1="153.35" x2="299.7" y2="-164.7" xlink:href="#Degradado_sin_nombre_7"/>
    <linearGradient id="Degradado_sin_nombre_7-4" data-name="Degradado sin nombre 7" x1="-82.18" y1="134.56" x2="283.35" y2="-183.48" xlink:href="#Degradado_sin_nombre_7"/>
    <linearGradient id="Degradado_sin_nombre_7-5" data-name="Degradado sin nombre 7" x1="-74.91" y1="142.91" x2="290.61" y2="-175.13" xlink:href="#Degradado_sin_nombre_7"/>
    <linearGradient id="Degradado_sin_nombre_7-6" data-name="Degradado sin nombre 7" x1="-72.08" y1="146.17" x2="293.45" y2="-171.88" xlink:href="#Degradado_sin_nombre_7"/>
    <linearGradient id="Degradado_sin_nombre_7-7" data-name="Degradado sin nombre 7" x1="-96.03" y1="118.64" x2="269.5" y2="-199.4" xlink:href="#Degradado_sin_nombre_7"/>
    <linearGradient id="Degradado_sin_nombre_7-8" data-name="Degradado sin nombre 7" x1="-103.8" y1="109.71" x2="261.72" y2="-208.34" xlink:href="#Degradado_sin_nombre_7"/>
  </defs>
  <path class="cls-8" d="M1.04,108.4C.24,91.61-.25,74.81.13,57.97c.11-4.22.24-8.42.71-12.69.24-2.16.7-4.34,1.41-6.43.71-2.1,1.72-4.16,3.12-5.98,1.4-1.82,3.23-3.37,5.29-4.42,2.06-1.06,4.3-1.67,6.53-1.93,2.19-.28,4.57-.23,6.8.32,2.24.54,4.38,1.53,6.23,2.89,3.72,2.74,6.23,6.83,7.37,11.18,1.17,4.3,1.01,9.15-.82,13.31-1.77,4.16-4.86,7.75-8.89,9.91-2.01,1.06-4.3,1.76-6.67,1.73-2.33-.07-4.58-.63-6.63-1.77-2.03-1.14-3.7-2.87-4.83-4.85-1.13-1.98-1.77-4.18-1.98-6.4-.21-2.21-.02-4.49.71-6.61.7-2.11,1.94-4.13,3.75-5.52,3.57-2.88,9.1-2.78,12.36.35,1.55,1.6,2.42,3.73,2.51,5.89.02,1.08-.18,2.19-.74,3.12-.55.94-1.51,1.58-2.53,1.8,1.01-.3,1.88-1,2.32-1.92.46-.92.56-1.97.47-2.97-.2-2.02-1.15-3.98-2.61-5.31-1.46-1.3-3.54-1.9-5.48-1.86-1.97.04-3.88.8-5.33,2.07-1.46,1.27-2.48,3-3.02,4.89-.57,1.88-.65,3.89-.39,5.84.28,1.95.91,3.85,1.9,5.49,1,1.64,2.4,2.99,4.06,3.85,1.64.87,3.6,1.28,5.46,1.29,1.84-.03,3.7-.59,5.37-1.52,3.36-1.87,6.02-5.04,7.46-8.62.72-1.8,1.15-3.7,1.25-5.63.09-1.91-.14-3.87-.66-5.76-1.01-3.75-3.18-7.2-6.27-9.44-3.07-2.28-6.94-3.21-10.81-2.68-1.94.22-3.82.73-5.5,1.58-1.69.84-3.14,2.08-4.33,3.56-2.37,2.98-3.62,6.95-4.15,10.91-.51,4.07-.75,8.27-.99,12.44-.41,8.36-.68,16.75-.9,25.14-.29,8.39-.41,16.79-.66,25.19Z"/>
  <path class="cls-1" d="M3.76,104.38c-.23-4.12-.33-8.25-.44-12.37-.06-4.13-.08-8.25,0-12.39.06-2.07.09-4.13.32-6.23.2-2.12.77-4.27,1.99-6.15.62-.93,1.44-1.76,2.41-2.37.97-.61,2.09-.96,3.19-1.12,1.1-.15,2.24-.13,3.35.12,1.11.25,2.15.73,3.08,1.37,1.84,1.3,3.19,3.23,3.79,5.38.31,1.07.4,2.24.33,3.31-.06,1.09-.25,2.18-.6,3.22-.7,2.07-2.03,4.03-4.01,5.18-.98.57-2.12.91-3.28.91-1.14-.02-2.26-.28-3.27-.86-1-.58-1.79-1.47-2.3-2.47-.51-1-.77-2.08-.87-3.16-.08-1.08-.03-2.17.27-3.23.29-1.05.85-2.09,1.73-2.79,1.76-1.46,4.49-1.31,6.05.25.75.8,1.16,1.85,1.2,2.91,0,.53-.1,1.07-.38,1.53-.27.46-.75.77-1.25.88.49-.15.92-.49,1.15-.94.23-.45.29-.96.24-1.46-.09-.99-.54-1.96-1.25-2.63-1.46-1.3-3.9-1.27-5.27.04-1.43,1.27-1.74,3.43-1.52,5.34.21,1.93,1.14,3.83,2.77,4.68.8.43,1.76.62,2.67.6.91-.02,1.81-.3,2.6-.78,1.6-.96,2.72-2.65,3.3-4.47.55-1.82.72-3.87.21-5.66-.52-1.81-1.68-3.45-3.22-4.52-3-2.21-7.89-1.68-9.92,1.54-2.19,3.19-1.99,7.54-2.33,11.59-.22,4.11-.33,8.23-.43,12.35l-.32,12.37Z"/>
  <path class="cls-7" d="M5.33,99.04c-.18-3.49-.25-6.99-.19-10.5.02-.88.04-1.75.14-2.64.09-.9.33-1.81.85-2.6.51-.8,1.42-1.37,2.37-1.48.93-.14,1.95.07,2.72.62.78.55,1.35,1.37,1.6,2.28.26.93.15,1.88-.12,2.76-.3.88-.85,1.71-1.69,2.2-.83.51-1.93.51-2.77.03-.87-.5-1.27-1.49-1.34-2.38-.07-.89.09-1.92.85-2.55.74-.62,1.9-.56,2.57.1.31.34.5.78.51,1.23.03.44-.23.94-.69,1.02.45-.12.64-.6.59-1.02-.03-.42-.23-.83-.53-1.11-.62-.55-1.65-.54-2.23.02-.61.54-.74,1.45-.64,2.27.09.82.48,1.62,1.18,1.98.7.36,1.57.34,2.23-.08.68-.41,1.16-1.12,1.41-1.89.23-.78.31-1.65.08-2.4-.22-.77-.72-1.46-1.37-1.91-1.27-.94-3.35-.72-4.21.65-.93,1.36-.83,3.2-.98,4.92-.17,3.48-.22,6.98-.32,10.48Z"/>
  <path class="cls-3" d="M106.58,1.04c-8.4.25-16.8.36-25.19.66-8.39.22-16.78.48-25.14.9-4.17.24-8.37.48-12.44.99-3.97.53-7.93,1.77-10.91,4.15-1.48,1.19-2.71,2.64-3.56,4.33-.85,1.68-1.36,3.56-1.58,5.5-.52,3.88.4,7.75,2.68,10.81,2.24,3.09,5.68,5.26,9.44,6.27,1.88.51,3.85.75,5.76.66,1.92-.1,3.83-.53,5.63-1.25,3.59-1.44,6.76-4.1,8.62-7.46.93-1.67,1.49-3.53,1.52-5.37,0-1.86-.42-3.82-1.29-5.46-.87-1.66-2.22-3.06-3.85-4.06-1.64-1-3.54-1.62-5.49-1.9-1.96-.26-3.96-.18-5.84.39-1.89.54-3.62,1.56-4.89,3.02-1.27,1.45-2.03,3.36-2.07,5.33-.04,1.94.56,4.02,1.86,5.48,1.33,1.47,3.29,2.41,5.31,2.61,1.01.1,2.06,0,2.97-.47.92-.45,1.62-1.32,1.92-2.32-.22,1.02-.86,1.98-1.8,2.53-.93.56-2.04.76-3.12.74-2.16-.09-4.3-.95-5.89-2.51-3.13-3.26-3.23-8.79-.35-12.36,1.4-1.8,3.41-3.05,5.52-3.75,2.12-.73,4.4-.92,6.61-.71,2.22.22,4.42.85,6.4,1.98,1.98,1.13,3.71,2.8,4.85,4.83,1.14,2.05,1.7,4.3,1.77,6.63.02,2.37-.67,4.66-1.73,6.67-2.16,4.03-5.75,7.13-9.91,8.89-4.15,1.82-9,1.99-13.31.82-4.34-1.14-8.44-3.65-11.18-7.37-1.37-1.85-2.36-3.99-2.89-6.23-.55-2.23-.6-4.61-.32-6.8.27-2.22.87-4.47,1.93-6.53,1.05-2.06,2.6-3.89,4.42-5.29,1.82-1.41,3.88-2.41,5.98-3.12,2.09-.71,4.27-1.17,6.43-1.41,4.27-.47,8.47-.61,12.69-.71,16.84-.37,33.64.11,50.43.91Z"/>
  <path class="cls-5" d="M102.57,3.76l-12.37.32c-4.12.1-8.24.21-12.35.43-4.05.35-8.4.14-11.59,2.33-3.22,2.03-3.76,6.91-1.54,9.92,1.07,1.54,2.71,2.7,4.52,3.22,1.78.51,3.84.35,5.66-.21,1.82-.58,3.5-1.7,4.47-3.3.48-.79.76-1.69.78-2.6.02-.91-.17-1.87-.6-2.67-.86-1.64-2.75-2.56-4.68-2.77-1.92-.22-4.07.09-5.34,1.52-1.31,1.37-1.34,3.8-.04,5.27.67.71,1.64,1.16,2.63,1.25.5.04,1.01-.01,1.46-.24.45-.22.79-.65.94-1.15-.11.5-.42.97-.88,1.25-.45.28-1,.38-1.53.38-1.06-.04-2.11-.45-2.91-1.2-1.55-1.56-1.71-4.29-.25-6.05.7-.89,1.74-1.44,2.79-1.73,1.06-.3,2.15-.36,3.23-.27,1.08.09,2.16.35,3.16.87.99.51,1.89,1.3,2.47,2.3.58,1.01.84,2.13.86,3.27,0,1.16-.34,2.3-.91,3.28-1.15,1.98-3.11,3.31-5.18,4.01-1.04.35-2.13.54-3.22.6-1.07.07-2.24-.02-3.31-.33-2.16-.61-4.09-1.95-5.38-3.79-.64-.92-1.13-1.97-1.37-3.08-.25-1.11-.27-2.25-.12-3.35.15-1.11.5-2.22,1.12-3.19.61-.97,1.43-1.8,2.37-2.41,1.89-1.23,4.03-1.79,6.15-1.99,2.09-.22,4.16-.26,6.23-.32,4.14-.07,8.26-.05,12.39,0,4.13.11,8.25.21,12.37.44Z"/>
  <path class="cls-2" d="M97.22,5.33c-3.5.1-6.99.15-10.48.32-1.72.15-3.56.05-4.92.98-1.37.86-1.59,2.94-.65,4.21.45.65,1.14,1.15,1.91,1.37.76.22,1.63.15,2.4-.08.77-.25,1.49-.73,1.89-1.41.41-.66.43-1.54.08-2.23-.36-.69-1.17-1.08-1.98-1.18-.81-.1-1.73.04-2.26.64-.55.58-.57,1.61-.02,2.23.28.3.69.5,1.11.53.41.06.89-.14,1.02-.59-.08.45-.58.72-1.02.69-.45-.01-.89-.19-1.23-.51-.66-.66-.72-1.82-.1-2.57.63-.76,1.67-.92,2.55-.85.9.07,1.88.47,2.38,1.34.48.84.48,1.94-.03,2.77-.49.84-1.32,1.39-2.2,1.69-.89.27-1.83.37-2.76.12-.91-.25-1.73-.82-2.28-1.6-.56-.78-.77-1.8-.62-2.72.11-.95.68-1.86,1.48-2.37.8-.52,1.7-.76,2.6-.85.89-.1,1.76-.11,2.64-.14,3.51-.06,7,.02,10.5.19Z"/>
  <path class="cls-4" d="M17.44,27.09c-3.95,0-7.17-3.22-7.17-7.17s3.22-7.17,7.17-7.17,7.17,3.22,7.17,7.17-3.22,7.17-7.17,7.17ZM17.44,14.72c-2.87,0-5.2,2.33-5.2,5.2s2.33,5.2,5.2,5.2,5.2-2.33,5.2-5.2-2.33-5.2-5.2-5.2Z"/>
  <path class="cls-6" d="M9.04,14.72c-1.76,0-3.2-1.43-3.2-3.2s1.43-3.2,3.2-3.2,3.2,1.43,3.2,3.2-1.43,3.2-3.2,3.2ZM9.04,10.3c-.68,0-1.22.55-1.22,1.23s.55,1.22,1.22,1.22,1.22-.55,1.22-1.22-.55-1.23-1.22-1.23Z"/>
</svg>