<?xml version="1.0" encoding="UTF-8"?>
<svg xmlns="http://www.w3.org/2000/svg" viewBox="0 0 749.21 500.1">
  <defs>
    <style>
      .cls-1 {
        fill: none;
      }

      .cls-2, .cls-3, .cls-4 {
        mix-blend-mode: multiply;
        opacity: .92;
      }

      .cls-2, .cls-5 {
        fill: #60704c;
      }

      .cls-6 {
        fill: #72875b;
      }

      .cls-7 {
        isolation: isolate;
      }

      .cls-8 {
        fill: #3f4a32;
      }

      .cls-9, .cls-4 {
        fill: #73875c;
      }

      .cls-10, .cls-11 {
        fill: #ffefd9;
      }

      .cls-3 {
        fill: #5c6b49;
      }

      .cls-11 {
        opacity: .51;
      }

      .cls-12 {
        fill: #4a5938;
      }

      .cls-13 {
        fill: #3b452f;
      }

      .cls-14 {
        fill: #88a16c;
      }
    </style>
  </defs>
  <g class="cls-7">
    <g id="OBJECTS">
      <g>
        <path class="cls-1" d="M280.59,394.63c-1.12-1.1-2.23-2.18-3.35-3.27-1.01.81-1.97,1.59-2.89,2.36.27.63.54,1.25.82,1.87,1.8-.32,3.61-.64,5.41-.96Z"/>
        <path class="cls-1" d="M22.6,203.01c.22.14.44.27.66.41.12-.08.25-.16.37-.24-.35-.18-.7-.37-1.06-.55,0,.13.02.26.02.38Z"/>
        <path class="cls-1" d="M158.76,499.83c.02.09.03.18.05.27h8.91c-.03-.09-.07-.18-.1-.27h-8.85Z"/>
        <path class="cls-1" d="M130.21,499.83c0,.09.01.18.02.27h7.66c-.04-.09-.07-.18-.11-.27h-7.58Z"/>
        <path class="cls-1" d="M161.81,390.89c3.68,4.03,7.39,8.06,11.29,11.91,3.85,1.41,7.83,2.39,11.88,3.02.05-.07.09-.15.14-.23-5.49-8.37-11.21-16.74-16.88-24.92-2.06,3.42-4.22,6.82-6.43,10.21Z"/>
        <path class="cls-1" d="M344.67,500.1h12.15c-4.5-.03-8.64-.06-12.37-.09.07.03.15.06.22.09Z"/>
        <path class="cls-1" d="M111.15,499.83c0,.09,0,.18-.01.27h4.84c-.02-.09-.04-.18-.06-.27h-4.77Z"/>
        <path class="cls-1" d="M303.37,390.77c3.75-.6,7.5-1.18,11.24-1.74-6.54-3.12-13.39-5.78-19.69-9.23-.29.19-.59.39-.89.58,3.02,3.57,6.14,7.02,9.33,10.39Z"/>
        <path class="cls-1" d="M0,0v140.17c1.77-.93,3.91-1.08,5.84-.26,3.42,1.45,6.88,2.7,10.45,3.48.16-.19.33-.38.5-.56-4.63-2.77-7.62-7.45-11.25-11.33,2.5-3.19,5.06-6.31,7.67-9.32,3.23,2.11,6.28,4.54,9.16,7.06,1.65,1.24,3.71,1.25,5.77,1.25-3.42-4.43-6.85-8.86-10.17-13.6,2.73-2.93,5.5-5.74,8.31-8.4,1.86,2.7,4.15,5,7.06,6.55-1.65-3.32-1.83-7.04-2.48-10.72.38-.34.76-.67,1.15-1,4.25-3.66,10.36-9.08,15.32-10.23,1-.23,1.96-.31,2.84-.14-.79,6.16-1.17,12.22-1.31,18.24-4.22,1.41-8.36,2.88-12.43,4.9,4.13.01,8.24.06,12.36.15-.01,2.87.02,5.74.08,8.6-4.82,1.44-9.57,3.37-14.42,4.6-.05.22-.11.45-.17.67,4.93.6,9.84.94,14.75,1.14.13,4.02.28,8.05.42,12.08-6.1-.17-12.27-.37-18.33-.53-.12.83-.24,1.62-.33,2.39,4.59,2.03,9.32,3.73,14.14,5.25,2.84.89,4.81,3.5,4.83,6.48.01,1.5,0,3,0,4.51-.02,2.58-.12,5.16-.27,7.75-3.7-1.09-7.5-1.86-11.34-2.53-.4,1.37-1.1,2.5-1.99,3.48,4.17,2.6,8.37,5.1,12.63,7.52-.46,4.27-1.08,8.55-1.83,12.84.97-.45,1.94-.89,2.91-1.32-1.49,12.08-.9,24.15,6.88,33.18,5.3-.24,10.59-.22,15.86.09.91-3.79.97-8.49.53-12.18-1.89-9.05-4.7-18.36-6.72-27.56,16.13-5.51,32.79-9,48.98-10.3.16.45.32.91.48,1.37,4.83,13.71,9.13,27.72,12.43,41.88-7.11,4.66-14.66,8.52-22.5,12.73,6.96,2.16,13.84,4.91,20.61,8.31,1.79-1.26,3.58-2.55,5.36-3.83.43,2.54.82,5.09,1.17,7.64,15.04,10.46,19.98,26.77,19.98,45.09.07-.02.14-.04.22-.07,1.36-.41,2.71-.82,4.06-1.24,2.71-.83,5.4-1.68,8.09-2.55,2.62,5.4,5.81,10.26,9.65,14.24,1.66-2.19,2.61-4.48,3.05-6.82.14-4.26-.45-9.27-1.14-11.45,7.37-2.7,14.97-5.43,22.83-6.66.27-.04.53-.07.78-.1.08,0,.16-.01.25-.02.16-.01.33-.02.48-.03.09,0,.18,0,.28,0,.14,0,.28,0,.41,0,.09,0,.18.01.27.02.12,0,.25.02.36.03.09.01.18.02.27.04.11.02.22.04.33.06.08.02.17.03.25.05.11.02.21.05.31.08.08.02.16.04.24.06.1.03.2.06.3.09.07.02.15.05.22.07.1.04.2.08.29.11.06.03.13.05.19.07.15.06.29.13.43.2.09.04.18.09.26.13.05.03.11.05.16.08.1.05.19.1.28.15.04.02.08.04.12.06.45.25.87.51,1.28.73,0,0,0,0,.01,0,.12.07.23.13.35.19.01,0,.02.01.03.02.12.06.25.12.37.18h0c1.58.71,3.18.66,6.04-2.14,3.01,8.85-9.55,38.28-21.41,62.86-8.02-1.34-16.07-2.49-24.2-2.85-2.13.67-5.04,4.86-3.65,6.3,5.13,6.3,12.91,8.78,20.44,11.52-4.29,8.46-7.92,15.29-9.87,18.9-1.91,3.54-3.93,7.08-6.02,10.6,3.94-1.63,7.88-3.22,11.84-4.75,4.22-1.63,9-.38,11.89,3.09,6.36,7.65,12.34,15.74,18.77,23.45,1.84.7,3.21,1.52,4.68,2.05-3.59-12.33-8.06-24.73-14.58-36.11,5.05-1.69,10.18-3.27,15.37-4.75,6.37,10.3,12.83,20.44,17.13,32.21,2.37-12.53-2.07-24.11-3.98-35.69,3.14-.77,6.29-1.51,9.45-2.2,4.82-1.06,9.73,1.44,11.76,5.94,2.34,5.19,4.93,10.21,8.12,14.81.38-.05.76-.09,1.14-.11-2.32-7.94-.8-16.33-.84-24.47,1.93-.31,3.86-.6,5.79-.88-18.8,1.73-36.03-3.8-41.58-19.93-12.63-10.97,10.47-33.14,16.91-43.79,13.74-22.69,41.44-35.07,64.29-17.49,47.62,36.65,6.46,73.31-33.02,80.31,1.99-.25,3.98-.49,5.96-.7,1.44,5.74,2.33,11.66,2.94,17.5.56,3.11,2.87,5.27,5.18,7.42.76-8.55,1.54-17.11,2.74-25.9,6.12-.45,12.17-.72,18.1-.78-.73,4.97-.54,9.95,1.11,14.73,1.61-5.46,5.28-9.83,8.4-14.65.78.02,1.56.04,2.34.07,8.6.31,21.13.59,27.91,4.47,1.37.78,2.53,1.7,3.35,2.81-7.31,6.11-14.06,12.54-20.5,19.15-6.22-2.82-12.41-5.49-19.1-7.45,4.63,4.32,9.21,8.67,13.74,13.06-2.72,2.91-5.39,5.85-8.03,8.8,44.28-6.47,88.43-9.35,134.12-.88,38.04,6.75,93.24,22.81,95.61,76.87,6.36,8.1,12.64,14.25,27.74,13.25,42.07-2.79,90.14-53.64,134.43-30.05,12.73,6.78,37.66,38.62,40.3,51.93-.08.1-.48.19-1.16.27h1.38V0H0Z"/>
        <path class="cls-1" d="M0,151.76v6.34c3.98,1.27,7.92,2.75,11.77,4.72-3.03-4.82-7.38-8.02-11.77-11.06Z"/>
        <path class="cls-1" d="M86.39,499.83c-.05.09-.11.18-.16.27h1.81c-.02-.09-.04-.18-.06-.27h-1.59Z"/>
        <path class="cls-1" d="M7.05,174.9c-2.3-1.38-4.65-2.72-7.05-3.99v4.54c1.3.19,2.6.37,3.9.54,1.19-.48,2.21-.7,3.14-1.09Z"/>
        <path class="cls-1" d="M20.94,180.9c6.15,4.68,12.62,8.92,19.3,12.82,1.9-.96,3.8-1.9,5.73-2.8-8.49-2.67-16.52-6.75-24.59-10.66-.15.2-.3.42-.44.63Z"/>
        <path class="cls-1" d="M22.09,499.83c.2.09.4.18.61.27h3.27c-.1-.09-.21-.18-.31-.27h-3.57Z"/>
        <path class="cls-10" d="M314.61,389.03c-3.75.56-7.49,1.14-11.24,1.74,2,2.12,4.02,4.21,6.07,6.28-2.45,2.81-4.88,5.64-7.32,8.47,14.3,2.2,28.51,6.25,42.13,11.79-11.64,8.79-21.22,19.72-18.8,35.48,2.03,12.04,14.12,2.94,19.83-4.09,5.19-7.66,9.92-16.15,15.13-23.99,15.18,7.76,29.27,17.3,41.47,28.03-.21.43-.43.86-.65,1.29-.67,1.35-1.36,2.69-2.04,4.04,21.89-12.53,44.45-23.36,69.52-26.62,22.81-2.97,47.96,2.51,65.15,18.4,5.36,4.95,9.02,10.23,12.66,14.87-2.37-54.06-57.57-70.12-95.61-76.87-45.68-8.47-89.83-5.59-134.12.88-.28.32-.57.63-.85.95-.44-.21-.88-.42-1.32-.63Z"/>
        <path class="cls-10" d="M22.09,499.83h3.57c-3.74-3.37-7.69-6.42-11.58-9.57,1.19,2.89,2.91,5.49,4.81,8,1.06.54,2.13,1.07,3.21,1.57Z"/>
        <path class="cls-10" d="M204.87,450.22c2.03,7.45,3.76,14.99,5.32,22.56.69-1.33,1.28-2.7,1.76-4.12-2.19-6.34-4.48-12.62-6.71-18.89-.13.15-.25.3-.38.45Z"/>
        <path class="cls-10" d="M254.4,427.34c1.68,6.19,3.49,12.32,5.39,18.42,2.73-1.58,4.97-4.16,6.37-7.59.45-.89.87-1.78,1.29-2.68-2.26-3.41-4.68-6.72-7.18-10-1.88,1.12-3.84,1.67-5.87,1.84Z"/>
        <path class="cls-10" d="M111.15,499.83h4.77c-1.25-5.65-2.6-11.34-3.82-17.09-.05,0-.1,0-.15,0-.32,5.69-.6,11.38-.79,17.08Z"/>
        <path class="cls-10" d="M12.46,480.44c-.06.84-.05,1.65-.02,2.44,2.9-.91,6.14-.54,8.83,1.2,5.03,3.24,10.23,6.13,15.85,8.29-5.58-5.4-11.57-10.3-18.97-13.24-2.11-.75-4.94-.8-5.68,1.31Z"/>
        <path class="cls-10" d="M275.18,395.59c1.49,3.33,3.08,6.61,4.77,9.84.36-.6.73-1.19,1.12-1.78,3.05.06,6.12.23,9.18.47-3.23-3.17-6.45-6.35-9.66-9.5-1.8.32-3.61.64-5.41.96Z"/>
        <path class="cls-10" d="M87.98,499.83c-.14-.68-.3-1.36-.43-2.05-.37.69-.75,1.37-1.16,2.05h1.59Z"/>
        <path class="cls-10" d="M345.72,481.93c-7.5-2.2-11.4,5.8-9.15,11.67,5.94-2.79,11.81-5.85,17.64-9.08-2.77-.88-5.59-1.75-8.49-2.59Z"/>
        <path class="cls-10" d="M10.55,272.37c-3.38-2.68-6.94-5.17-10.55-7.64v3.78c2.37,2.74,4.79,5.44,7.26,8.1,1.4-1.24,2.51-2.66,3.29-4.23Z"/>
        <path class="cls-10" d="M133.87,289.52c-15.01,7.45-33.69-.11-50,8.65-4.97,3.04-2.92,9.03,1.09,10.99,6.49,2.25,12.96,3.06,19.44,2.98-.91-2.5-1.85-4.99-2.84-7.47,1.24-.68,2.49-1.34,3.75-1.97,8.82-4.45,18.09-7.88,27.51-10.95,4.04-1.31,8.1-2.56,12.17-3.79,2.64-.8,5.28-1.59,7.92-2.38,0-18.32-4.95-34.63-19.98-45.09,2.25,16.35,2.8,32.78.94,49.03Z"/>
        <path class="cls-10" d="M15.83,450.8c.62.01.84-.66.9-1.42.02-.22.02-.44.01-.66s-.02-.43-.04-.62c-.04-.48-.11-.82-.11-.82-1.58-3.52-3.32-6.93-5.15-10.28-1.15-2.11-2.34-4.2-3.57-6.26-2.5-4.16-5.14-8.21-7.88-12.19v24.39c1.03.7,2.08,1.37,3.16,2.01,3.94,2.36,8.14,4.35,12.67,5.86Z"/>
        <path class="cls-10" d="M0,372.88v7.13c.83-2.31.92-4.73,0-7.13Z"/>
        <path class="cls-10" d="M129.37,480.65c.06,6.4.36,12.79.84,19.17h7.58c-2.59-6.51-5.39-12.9-8.42-19.17Z"/>
        <path class="cls-10" d="M114.39,449.9c1.9,1.99,3.81,3.96,5.74,5.92.22.03.44.05.65.07-1.81-2.36-3.5-4.81-5.11-7.31-.43.44-.86.88-1.28,1.32Z"/>
        <path class="cls-10" d="M184.08,412.57c.19-2.37-.55-4.36.9-6.75-4.05-.63-8.02-1.61-11.88-3.02,3.47,3.43,7.1,6.73,10.98,9.77Z"/>
        <path class="cls-10" d="M75.8,449.17c6.03,5.11,12.31,9.89,19.3,13.79.4-.79.85-1.55,1.35-2.28-1.9-2.99-3.81-6.02-5.73-9.06-4.93-1.12-9.9-2-14.92-2.45Z"/>
        <path class="cls-10" d="M105.44,247.99c7.65-2.4,14.4-6.69,20.96-11.3-6.77-3.39-13.65-6.15-20.61-8.31-2.79,1.5-5.62,3.04-8.48,4.68-8.96,5.08-.85,18.01,8.13,14.93Z"/>
        <path class="cls-10" d="M62.26,227.35c5.93,4.08,9.02.53,10.33-4.92-5.27-.3-10.56-.33-15.86-.09,1.55,1.8,3.37,3.47,5.53,5Z"/>
        <path class="cls-10" d="M131.21,431.53c2.71,2.58,5.51,5.04,8.46,7.32.45-1.65.87-3.3,1.34-4.9-1.68-2.64-3.42-5.26-5.21-7.87-1.52,1.84-3.05,3.65-4.6,5.45Z"/>
        <path class="cls-10" d="M111.69,390.29c-4.24-.08-11.41,5.45-6.53,9.08,7.19,6.58,15.19,12.38,23.83,16.94-3.26-4.61-6.53-9.22-9.62-13.85,1.46-.79,2.92-1.58,4.38-2.36,4.13-2.2,9.25-1.38,12.47,2.01,6.12,6.44,12.44,12.67,19.21,18.43.27-.01.52-.04.8-.04,2.71-.04,5.14.46,7.35,1.11-4.94-7.2-9.53-14.46-14.39-21.67-12.25-4.14-24.57-8.29-37.5-9.65Z"/>
        <path class="cls-10" d="M153.48,466.38c1.41,11.33,3.18,22.46,5.27,33.45h8.85c-4.25-11.35-7.64-22.98-14.13-33.45Z"/>
        <path class="cls-10" d="M11.33,262.02c-.21-.74-.47-1.48-.8-2.23-.6-1.76-1.28-3.47-1.99-5.15-2.83-1.27-5.67-2.5-8.54-3.62,3.62,3.83,7.42,7.48,11.33,11.01Z"/>
        <path class="cls-11" d="M305.66,269.89c-22.85-17.59-50.55-5.2-64.29,17.49-6.45,10.65-29.54,32.82-16.91,43.79,5.55,16.12,22.79,21.66,41.58,19.93,2.2-.32,4.4-.62,6.59-.89,39.48-7.01,80.64-43.66,33.02-80.31Z"/>
        <path class="cls-11" d="M708.69,447.9c-44.29-23.6-92.36,27.26-134.43,30.05-15.1,1-21.38-5.15-27.74-13.25.09,1.99.11,4.03.05,6.13-.22,9.44-2,19.15-4.08,29h-198.45c.14.06.28.12.42.18,3.73.03,7.87.06,12.37.09h391c.68-.09,1.08-.18,1.16-.27-2.63-13.31-27.56-45.15-40.3-51.93Z"/>
        <path class="cls-10" d="M533.85,449.83c-17.19-15.89-42.34-21.37-65.15-18.4-25.07,3.26-47.63,14.09-69.52,26.62-5.93,11.62-12.34,23.07-19.4,34.02-8.54-1.92-16.8-4.77-25.57-7.56-5.83,3.23-11.7,6.29-17.64,9.08.71,1.87,2.04,3.52,4.08,4.56,1.11.6,2.24,1.16,3.39,1.67h198.45c2.08-9.85,3.86-19.56,4.08-29,.06-2.1.04-4.14-.05-6.13-3.64-4.64-7.3-9.92-12.66-14.87Z"/>
        <path class="cls-11" d="M533.85,449.83c-17.19-15.89-42.34-21.37-65.15-18.4-25.07,3.26-47.63,14.09-69.52,26.62-5.93,11.62-12.34,23.07-19.4,34.02-8.54-1.92-16.8-4.77-25.57-7.56-5.83,3.23-11.7,6.29-17.64,9.08.71,1.87,2.04,3.52,4.08,4.56,1.11.6,2.24,1.16,3.39,1.67h198.45c2.08-9.85,3.86-19.56,4.08-29,.06-2.1.04-4.14-.05-6.13-3.64-4.64-7.3-9.92-12.66-14.87Z"/>
        <path class="cls-8" d="M27.87,138.57c.83-5.19,2.35-10.76,6.09-14.65.53-1.89,1.06-3.77,1.59-5.67,2.66-9.15,6.7-17.49,11.77-25.15-4.96,1.15-11.07,6.57-15.32,10.23-.38.33-.76.67-1.15,1,.65,3.69.83,7.4,2.48,10.72-2.91-1.55-5.2-3.85-7.06-6.55-2.81,2.66-5.58,5.47-8.31,8.4,3.32,4.74,6.74,9.17,10.17,13.6-2.06,0-4.12-.01-5.77-1.25-2.88-2.52-5.93-4.95-9.16-7.06-2.62,3.01-5.18,6.12-7.67,9.32,3.63,3.88,6.62,8.56,11.25,11.33,2.58-2.79,6.25-4.52,11.09-4.27Z"/>
        <path class="cls-8" d="M10.73,170.92c2.35-4.84,1.35-9.38,1.31-14.37-.04-4.73,1.33-9.65,4.25-13.15-3.56-.79-7.03-2.04-10.45-3.48-1.94-.82-4.08-.67-5.84.26v11.59c4.39,3.04,8.74,6.23,11.77,11.06-3.85-1.97-7.79-3.45-11.77-4.72v12.81c2.4,1.27,4.75,2.61,7.05,3.99,1.31-.56,2.47-1.47,3.69-3.98Z"/>
        <path class="cls-8" d="M3.9,175.99c-1.3-.17-2.6-.35-3.9-.54v3.07c.64-.6,1.26-1.1,1.8-1.44.76-.49,1.46-.83,2.11-1.09Z"/>
        <path class="cls-12" d="M18.12,178.71c.93.74,1.87,1.47,2.82,2.19.14-.22.28-.43.44-.63-1.08-.52-2.17-1.05-3.26-1.56Z"/>
        <path class="cls-12" d="M34.28,130.11c.06-.22.11-.45.17-.67-.65.16-1.31.32-1.97.46.6.08,1.2.14,1.8.22Z"/>
        <path class="cls-12" d="M23.73,162.03c4.1,2.8,8.24,5.5,12.41,8.1.89-.98,1.59-2.11,1.99-3.48-1.78-.31-3.56-.6-5.34-.88-3.3-.42-6.18-2.08-9.06-3.73Z"/>
        <path class="cls-12" d="M16.88,199.6c1.94,1.1,3.84,2.24,5.73,3.41,0-.13-.01-.25-.02-.38-1.92-1-3.82-2.01-5.71-3.03Z"/>
        <path class="cls-12" d="M4.29,208.1c.64.55,1.31,1.14,1.99,1.74,7.74-22.14,15.31-43.14,21.94-65.8.85.4,1.71.77,2.57,1.15.09-.77.21-1.56.33-2.39-.84-.02-1.68-.05-2.52-.07,1.81-6.22,3.6-12.5,5.37-18.82-3.75,3.89-5.27,9.46-6.09,14.65-4.84-.26-8.51,1.48-11.09,4.27-.17.18-.34.37-.5.56-2.92,3.5-4.29,8.42-4.25,13.15.04,4.99,1.04,9.54-1.31,14.37-1.22,2.51-2.37,3.42-3.69,3.98-.93.4-1.95.62-3.14,1.09-.65.26-1.34.6-2.11,1.09-.54.35-1.15.84-1.8,1.44v42.82s.06-.06.1-.09c1.35-4.53,2.72-8.95,4.19-13.15Z"/>
        <path class="cls-8" d="M21.38,180.27c8.08,3.91,16.1,7.98,24.59,10.66.32-.15.65-.29.97-.44.74-4.29,1.37-8.57,1.83-12.84-4.25-2.41-8.46-4.92-12.63-7.52-3.83,4.19-11.27,5.53-14.76,10.14Z"/>
        <path class="cls-3" d="M21.38,180.27c8.08,3.91,16.1,7.98,24.59,10.66.32-.15.65-.29.97-.44.74-4.29,1.37-8.57,1.83-12.84-4.25-2.41-8.46-4.92-12.63-7.52-3.83,4.19-11.27,5.53-14.76,10.14Z"/>
        <path class="cls-8" d="M32.37,154.67c2.32,3.91,6.58,5.13,6.09,10.22-.06.63-.17,1.21-.33,1.76,3.84.67,7.64,1.43,11.34,2.53.15-2.59.25-5.18.27-7.75.01-1.51.01-3.01,0-4.51-.02-2.98-1.98-5.59-4.83-6.48-4.81-1.51-9.54-3.22-14.14-5.25-.41,3.33-.38,6.16,1.59,9.48Z"/>
        <path class="cls-3" d="M32.37,154.67c2.32,3.91,6.58,5.13,6.09,10.22-.06.63-.17,1.21-.33,1.76,3.84.67,7.64,1.43,11.34,2.53.15-2.59.25-5.18.27-7.75.01-1.51.01-3.01,0-4.51-.02-2.98-1.98-5.59-4.83-6.48-4.81-1.51-9.54-3.22-14.14-5.25-.41,3.33-.38,6.16,1.59,9.48Z"/>
        <path class="cls-8" d="M22.6,203.85c.22-.14.44-.29.67-.43-.22-.14-.44-.27-.66-.41,0,.28,0,.56,0,.84Z"/>
        <path class="cls-3" d="M22.6,203.85c.22-.14.44-.29.67-.43-.22-.14-.44-.27-.66-.41,0,.28,0,.56,0,.84Z"/>
        <path class="cls-8" d="M20.02,182.79c-2.26,6.57,2.21,13.41,2.56,19.84.35.18.7.37,1.06.55,5.35-3.42,10.9-6.57,16.6-9.46-6.68-3.9-13.15-8.13-19.3-12.82-.37.58-.68,1.2-.92,1.89Z"/>
        <path class="cls-3" d="M20.02,182.79c-2.26,6.57,2.21,13.41,2.56,19.84.35.18.7.37,1.06.55,5.35-3.42,10.9-6.57,16.6-9.46-6.68-3.9-13.15-8.13-19.3-12.82-.37.58-.68,1.2-.92,1.89Z"/>
        <path class="cls-12" d="M6.28,209.84c1.14,1,2.31,2.06,3.52,3.16,4.11-3.23,8.38-6.28,12.81-9.15,0-.28.01-.56,0-.84-1.89-1.17-3.79-2.32-5.73-3.41,1.89,1.02,3.79,2.03,5.71,3.03-.35-6.43-4.82-13.27-2.56-19.84.24-.69.55-1.31.92-1.89-.95-.72-1.89-1.45-2.82-2.19,1.09.51,2.17,1.04,3.26,1.56,3.49-4.62,10.94-5.95,14.76-10.14-4.17-2.6-8.31-5.3-12.41-8.1,2.88,1.66,5.76,3.31,9.06,3.73,1.78.29,3.57.58,5.34.88.16-.55.27-1.13.33-1.76.49-5.09-3.77-6.31-6.09-10.22-1.97-3.32-2-6.15-1.59-9.48-.86-.38-1.72-.75-2.57-1.15-6.62,22.66-14.2,43.66-21.94,65.8Z"/>
        <path class="cls-3" d="M6.28,209.84c1.14,1,2.31,2.06,3.52,3.16,4.11-3.23,8.38-6.28,12.81-9.15,0-.28.01-.56,0-.84-1.89-1.17-3.79-2.32-5.73-3.41,1.89,1.02,3.79,2.03,5.71,3.03-.35-6.43-4.82-13.27-2.56-19.84.24-.69.55-1.31.92-1.89-.95-.72-1.89-1.45-2.82-2.19,1.09.51,2.17,1.04,3.26,1.56,3.49-4.62,10.94-5.95,14.76-10.14-4.17-2.6-8.31-5.3-12.41-8.1,2.88,1.66,5.76,3.31,9.06,3.73,1.78.29,3.57.58,5.34.88.16-.55.27-1.13.33-1.76.49-5.09-3.77-6.31-6.09-10.22-1.97-3.32-2-6.15-1.59-9.48-.86-.38-1.72-.75-2.57-1.15-6.62,22.66-14.2,43.66-21.94,65.8Z"/>
        <path class="cls-8" d="M11.33,262.02c-3.91-3.53-7.72-7.18-11.33-11.01v13.71c3.62,2.48,7.18,4.97,10.55,7.64,1.54-3.07,1.84-6.67.78-10.35Z"/>
        <path class="cls-3" d="M11.33,262.02c-3.91-3.53-7.72-7.18-11.33-11.01v13.71c3.62,2.48,7.18,4.97,10.55,7.64,1.54-3.07,1.84-6.67.78-10.35Z"/>
        <path class="cls-8" d="M5.69,277.83c.56-.38,1.08-.8,1.57-1.23-2.47-2.65-4.89-5.35-7.26-8.1v8.7c.23.22.45.45.69.67,1.01.99,4-.03,5-.04Z"/>
        <path class="cls-3" d="M5.69,277.83c.56-.38,1.08-.8,1.57-1.23-2.47-2.65-4.89-5.35-7.26-8.1v8.7c.23.22.45.45.69.67,1.01.99,4-.03,5-.04Z"/>
        <path class="cls-8" d="M1.73,240.32c-.43,2.34-1,4.66-1.73,6.94v3.76c2.87,1.13,5.72,2.35,8.54,3.62-2.09-4.93-4.57-9.61-6.81-14.32Z"/>
        <path class="cls-3" d="M1.73,240.32c-.43,2.34-1,4.66-1.73,6.94v3.76c2.87,1.13,5.72,2.35,8.54,3.62-2.09-4.93-4.57-9.61-6.81-14.32Z"/>
        <path class="cls-12" d="M5.9,210.9c.13-.36.25-.71.37-1.07-.68-.6-1.34-1.18-1.99-1.74-1.47,4.2-2.84,8.62-4.19,13.15,2.99-2.76,6.1-5.41,9.32-7.96-1.18-.79-2.36-1.59-3.51-2.39Z"/>
        <path class="cls-3" d="M5.9,210.9c.13-.36.25-.71.37-1.07-.68-.6-1.34-1.18-1.99-1.74-1.47,4.2-2.84,8.62-4.19,13.15,2.99-2.76,6.1-5.41,9.32-7.96-1.18-.79-2.36-1.59-3.51-2.39Z"/>
        <path class="cls-12" d="M0,236.56v10.7c.73-2.28,1.3-4.6,1.73-6.94-.6-1.25-1.17-2.5-1.73-3.76Z"/>
        <path class="cls-3" d="M0,236.56v10.7c.73-2.28,1.3-4.6,1.73-6.94-.6-1.25-1.17-2.5-1.73-3.76Z"/>
        <path class="cls-12" d="M6.28,209.84c-.12.36-.25.71-.37,1.07,1.16.8,2.33,1.6,3.51,2.39.13-.1.25-.2.38-.3-1.21-1.1-2.38-2.16-3.52-3.16Z"/>
        <path class="cls-3" d="M6.28,209.84c-.12.36-.25.71-.37,1.07,1.16.8,2.33,1.6,3.51,2.39.13-.1.25-.2.38-.3-1.21-1.1-2.38-2.16-3.52-3.16Z"/>
        <path class="cls-3" d="M6.28,209.84c-.12.36-.25.71-.37,1.07,1.16.8,2.33,1.6,3.51,2.39.13-.1.25-.2.38-.3-1.21-1.1-2.38-2.16-3.52-3.16Z"/>
        <path class="cls-8" d="M31.11,142.8c6.06.16,12.23.35,18.33.53-.13-4.03-.29-8.05-.42-12.08-4.91-.21-9.82-.54-14.75-1.14-1.07,4.17-2.55,8.46-3.13,12.49-.01.07-.02.13-.03.2Z"/>
        <path class="cls-3" d="M31.11,142.8c6.06.16,12.23.35,18.33.53-.13-4.03-.29-8.05-.42-12.08-4.91-.21-9.82-.54-14.75-1.14-1.07,4.17-2.55,8.46-3.13,12.49-.01.07-.02.13-.03.2Z"/>
        <path class="cls-8" d="M33.97,123.91c.47-.48.96-.95,1.5-1.37-.02,2.21-.44,4.53-1.02,6.9,4.85-1.22,9.6-3.15,14.42-4.6-.06-2.86-.09-5.72-.08-8.6-4.11-.09-8.23-.14-12.36-.15,4.07-2.02,8.21-3.49,12.43-4.9.15-6.02.53-12.08,1.31-18.24-.88-.17-1.84-.09-2.84.14-5.07,7.66-9.11,16.01-11.77,25.15-.53,1.9-1.06,3.78-1.59,5.67Z"/>
        <path class="cls-3" d="M33.97,123.91c.47-.48.96-.95,1.5-1.37-.02,2.21-.44,4.53-1.02,6.9,4.85-1.22,9.6-3.15,14.42-4.6-.06-2.86-.09-5.72-.08-8.6-4.11-.09-8.23-.14-12.36-.15,4.07-2.02,8.21-3.49,12.43-4.9.15-6.02.53-12.08,1.31-18.24-.88-.17-1.84-.09-2.84.14-5.07,7.66-9.11,16.01-11.77,25.15-.53,1.9-1.06,3.78-1.59,5.67Z"/>
        <path class="cls-12" d="M33.97,123.91c-1.77,6.32-3.56,12.6-5.37,18.82.83.02,1.68.04,2.52.07,0-.07.02-.13.03-.2.58-4.02,2.07-8.31,3.13-12.49-.6-.07-1.2-.13-1.8-.22.66-.14,1.31-.29,1.97-.46.58-2.37,1-4.69,1.02-6.9-.54.43-1.03.89-1.5,1.37Z"/>
        <path class="cls-3" d="M33.97,123.91c-1.77,6.32-3.56,12.6-5.37,18.82.83.02,1.68.04,2.52.07,0-.07.02-.13.03-.2.58-4.02,2.07-8.31,3.13-12.49-.6-.07-1.2-.13-1.8-.22.66-.14,1.31-.29,1.97-.46.58-2.37,1-4.69,1.02-6.9-.54.43-1.03.89-1.5,1.37Z"/>
        <path class="cls-13" d="M177.97,289.14c-.43,2.35-1.38,4.64-3.05,6.82-3.84-3.98-7.03-8.84-9.65-14.24-2.68.88-5.38,1.72-8.09,2.55,2.71-.83,5.4-1.68,8.09-2.55,9.61,20.67,12.44,15.36,12.7,7.41Z"/>
        <path class="cls-13" d="M202.14,270.91c.12,0,.25.02.36.03-.12-.01-.24-.02-.36-.03Z"/>
        <path class="cls-13" d="M206.04,272.15s.08.04.12.06c-.04-.02-.08-.04-.12-.06Z"/>
        <path class="cls-13" d="M205.59,271.91c.05.03.11.05.16.08-.05-.03-.11-.05-.16-.08Z"/>
        <path class="cls-13" d="M199.67,271.02c.27-.04.53-.07.78-.1-.25.02-.51.05-.78.1Z"/>
        <path class="cls-13" d="M204.9,271.58c.15.06.29.13.43.2-.14-.07-.28-.13-.43-.2Z"/>
        <path class="cls-13" d="M201.46,270.88c.14,0,.28,0,.41,0-.13,0-.27,0-.41,0Z"/>
        <path class="cls-13" d="M200.7,270.91c.16-.01.33-.02.48-.03-.16,0-.32.01-.48.03Z"/>
        <path class="cls-13" d="M204.42,271.4c.1.04.2.08.29.11-.1-.04-.19-.08-.29-.11Z"/>
        <path class="cls-13" d="M203.9,271.23c.1.03.2.06.3.09-.1-.03-.2-.07-.3-.09Z"/>
        <path class="cls-13" d="M186.47,288.86c-8.4,6.27-16.04,14.29-23.41,22.77.85,0,1.76-.08,2.75-.27,11.51-2.27,16.6-15.32,25.63-20.85-7.58,14.31-18.55,24.82-27.51,38.16-4.04,6.02-8.61,12.47-8.37,19.76.16,5.02,3.94,8.93,3.85,14.25-.47,29.64-59.21,7.74-64.17,40.92-.67,4.52,1.25,7.72,3.66,10.64,3.15-1.91,6.32-3.8,9.52-5.65,7.94,7.25,15.02,15.54,22.79,22.94,1.54-1.8,3.08-3.61,4.6-5.45-2.24-3.27-4.53-6.52-6.83-9.77-8.64-4.56-16.63-10.36-23.83-16.94-4.89-3.62,2.29-9.15,6.53-9.08,12.93,1.36,25.25,5.51,37.5,9.65-2.12-3.14-4.29-6.28-6.56-9.39,4.39-2.11,8.8-4.17,13.24-6.16,1.99,2.15,3.96,4.32,5.94,6.49,2.21-3.39,4.37-6.79,6.43-10.21-.29-.42-.58-.85-.88-1.26.72-.3,1.44-.59,2.15-.88,2.09-3.53,4.11-7.07,6.02-10.6,1.95-3.61,5.58-10.45,9.87-18.9-7.53-2.74-15.3-5.22-20.44-11.52-1.39-1.44,1.52-5.63,3.65-6.3,8.13.36,16.18,1.51,24.2,2.85,11.86-24.58,24.42-54.01,21.41-62.86-2.86,2.8-4.45,2.85-6.04,2.14-3.82,3.04-7.49,6.29-11.03,9.73-3.46,2.25-7.57,2.6-10.7,5.79Z"/>
        <path class="cls-13" d="M203.35,271.09c.11.02.21.05.31.08-.1-.03-.21-.05-.31-.08Z"/>
        <path class="cls-13" d="M207.43,272.94s0,0,.01,0c0,0,0,0-.01,0Z"/>
        <path class="cls-13" d="M202.77,270.98c.11.02.22.04.33.06-.11-.02-.22-.04-.33-.06Z"/>
        <path class="cls-13" d="M207.79,273.14s.02.01.03.02c-.01,0-.02-.01-.03-.02Z"/>
        <path class="cls-13" d="M153.12,285.51c-.07.02-.14.04-.22.07-2.64.8-5.28,1.59-7.92,2.38,2.71-.82,5.43-1.63,8.14-2.45Z"/>
        <path class="cls-13" d="M105.31,302.7c8.82-4.45,18.09-7.88,27.51-10.95-9.42,3.06-18.68,6.5-27.51,10.95Z"/>
        <path class="cls-13" d="M54.07,479.45c.64-.24,1.27-.41,1.9-.51-.24-.24-.48-.49-.72-.73-.31.44-.7.86-1.18,1.24Z"/>
        <path class="cls-13" d="M132.81,291.75c4.04-1.31,8.1-2.56,12.17-3.79-4.07,1.23-8.13,2.47-12.17,3.79Z"/>
        <path class="cls-13" d="M18.88,498.26c-1.9-2.51-3.62-5.1-4.81-8-1.97-1.59-3.92-3.2-5.81-4.89l.06-.06c1.2-1.16,2.61-1.96,4.12-2.44-.03-.79-.04-1.6.02-2.44.75-2.11,3.57-2.06,5.68-1.31,7.41,2.93,13.39,7.84,18.97,13.24,1.77.68,3.58,1.27,5.43,1.79.03-.06.05-.12.08-.19-9.74-5.14-12.67-15.46-19.05-22.81.24-.22.49-.43.73-.65-1.3-.46-2.55-.75-3.72-.81-6.77-.33-14.7,4.44-20.58,8.98v14.95c1.36-1.4,2.72-2.79,4.11-4.18,4.77,3.19,9.66,6.21,14.77,8.82Z"/>
        <path class="cls-13" d="M16.73,449.37c.02-.22.02-.44.01-.66,0,.22,0,.44-.01.66Z"/>
        <path class="cls-13" d="M77.18,472.65c-6.69-10.44-15.38-18.02-23.14-27.46,2.05-1.61,4.13-3.2,6.21-4.78-6.37,2.65-10.7,7.25-10.04,15.16.62.26,1.23.58,1.81.97,8.32,5.61,16.58,11.23,25.16,16.11Z"/>
        <path class="cls-13" d="M90.72,451.62c-2.95-4.67-5.92-9.38-8.87-14.04-2.7-.27-5.27-.46-7.48-.26-3.47.32-6.91.85-10.07,1.71,3.81,3.41,7.61,6.84,11.5,10.14,5.03.44,9.99,1.33,14.92,2.45Z"/>
        <path class="cls-13" d="M16.71,448.1c.02.19.03.4.04.62,0-.22-.02-.43-.04-.62Z"/>
        <path class="cls-13" d="M16.71,448.1c-.04-.48-.11-.82-.11-.82-1.58-3.52-3.32-6.93-5.15-10.28,1.83,3.35,3.56,6.76,5.15,10.28,0,0,.06.35.11.82Z"/>
        <path class="cls-13" d="M115.67,448.59c-3.66-5.7-6.94-11.66-10.48-17.37-.86,2.23-2.13,3.8-3.71,4.9,4.28,4.62,8.55,9.24,12.9,13.79.43-.44.86-.88,1.28-1.32Z"/>
        <path class="cls-12" d="M20.58,469.69c1.17.06,2.42.36,3.72.81,2.14-1.91,4.28-3.83,6.44-5.73,7.75,4.91,15.56,9.78,23.31,14.69,0,0,.01,0,.02,0,.48-.38.87-.8,1.18-1.24-6.02-6.26-11.22-13.5-17.64-19.45.07-.06.15-.13.22-.19.49-.43.98-.85,1.47-1.27,3.06-2.64,7.3-3.24,10.92-1.72-.67-7.91,3.67-12.5,10.04-15.16,1.01-.76,2.01-1.53,3.03-2.28.34.3.68.6,1.02.91,3.16-.86,6.61-1.39,10.07-1.71,2.21-.2,4.78-.01,7.48.26-1.86-2.94-3.71-5.87-5.54-8.75,1.3-.89,2.6-1.78,3.9-2.66,4.25-2.87,9.97-2.2,13.47,1.54,2.61,2.79,5.2,5.59,7.8,8.39,1.57-1.1,2.85-2.67,3.71-4.9-3.16-5.1-6.52-10.01-10.57-14.37,1.42-.88,2.85-1.74,4.28-2.61-2.41-2.92-4.34-6.13-3.66-10.64,4.96-33.18,63.71-11.29,64.17-40.92.08-5.32-3.69-9.24-3.85-14.25-.24-7.29,4.33-13.73,8.37-19.76,8.95-13.34,19.92-23.85,27.51-38.16-9.03,5.53-14.12,18.57-25.63,20.85-.99.2-1.9.28-2.75.27-11.09,12.75-21.6,26.52-33.28,36.89C93.22,379.17,23.89,449.78,0,475.05v3.62c5.88-4.54,13.82-9.32,20.58-8.98Z"/>
        <path class="cls-3" d="M207.44,272.95c.12.07.23.13.35.19-.12-.06-.23-.12-.35-.19Z"/>
        <path class="cls-3" d="M208.2,273.34c-.12-.06-.25-.12-.37-.18.12.06.25.12.37.18h0Z"/>
        <path class="cls-3" d="M206.16,272.21c.45.25.87.51,1.28.73-.41-.23-.83-.48-1.28-.73Z"/>
        <path class="cls-3" d="M176.84,277.69c.68,2.18,1.28,7.19,1.14,11.45.69-3.74.07-7.62-1.14-11.45Z"/>
        <path class="cls-3" d="M204.2,271.32c.07.02.15.05.22.07-.07-.03-.14-.05-.22-.07Z"/>
        <path class="cls-3" d="M202.5,270.95c.09.01.18.02.27.04-.09-.01-.18-.03-.27-.04Z"/>
        <path class="cls-3" d="M203.1,271.04c.08.02.17.03.25.05-.08-.02-.17-.03-.25-.05Z"/>
        <path class="cls-3" d="M205.33,271.78c.09.04.18.09.26.13-.09-.04-.17-.09-.26-.13Z"/>
        <path class="cls-3" d="M201.18,270.88c.09,0,.18,0,.28,0-.09,0-.18,0-.28,0Z"/>
        <path class="cls-3" d="M200.45,270.93c.08,0,.16-.01.25-.02-.08,0-.16,0-.25.02Z"/>
        <path class="cls-3" d="M205.76,271.99c.1.05.19.1.28.15-.09-.05-.19-.1-.28-.15Z"/>
        <path class="cls-3" d="M204.71,271.51c.06.03.13.05.19.07-.06-.03-.13-.05-.19-.07Z"/>
        <path class="cls-3" d="M203.67,271.16c.08.02.16.04.24.06-.08-.02-.16-.04-.24-.06Z"/>
        <path class="cls-3" d="M201.86,270.89c.09,0,.18.01.27.02-.09,0-.18-.01-.27-.02Z"/>
        <path class="cls-10" d="M0,442.93h0c1.03.7,2.08,1.37,3.16,2.01-1.07-.64-2.12-1.32-3.16-2.01Z"/>
        <path class="cls-3" d="M0,442.93h0c1.03.7,2.08,1.37,3.16,2.01-1.07-.64-2.12-1.32-3.16-2.01Z"/>
        <path class="cls-10" d="M104.4,312.14h0c-.91-2.5-1.85-4.99-2.84-7.47.99,2.48,1.93,4.97,2.84,7.47Z"/>
        <path class="cls-3" d="M104.4,312.14h0c-.91-2.5-1.85-4.99-2.84-7.47.99,2.48,1.93,4.97,2.84,7.47Z"/>
        <path class="cls-10" d="M7.88,430.73c1.23,2.06,2.42,4.15,3.57,6.26-1.15-2.11-2.34-4.2-3.57-6.26Z"/>
        <path class="cls-3" d="M7.88,430.73c1.23,2.06,2.42,4.15,3.57,6.26-1.15-2.11-2.34-4.2-3.57-6.26Z"/>
        <path class="cls-10" d="M54.93,400.58c.43-1.49.26-3.43-.35-5.69-5.17-2.31-10.13-3.44-12.83-2.06,6.78,6.39,12.35,10.57,13.17,7.75Z"/>
        <path class="cls-3" d="M54.93,400.58c.43-1.49.26-3.43-.35-5.69-5.17-2.31-10.13-3.44-12.83-2.06,6.78,6.39,12.35,10.57,13.17,7.75Z"/>
        <path class="cls-13" d="M20.82,410.33c-4.05.77-7.9,1.93-11.38,3.86-2.24,1.24-4.67.93-7.17-.43-.75-.41-1.51-.92-2.27-1.5v6.28c2.74,3.99,5.38,8.04,7.88,12.19,1.23,2.06,2.42,4.15,3.57,6.26,1.83,3.35,3.56,6.76,5.15,10.28,0,0,.06.35.11.82.02.19.03.4.04.62s0,.44-.01.66c-.06.76-.28,1.43-.9,1.42-4.53-1.51-8.74-3.5-12.67-5.86-1.07-.64-2.12-1.32-3.16-2.01v30.83c7.92-11.39,18.57-22.22,22.27-34.86,1.62-5.54-2.45-19.9-1.45-28.57Z"/>
        <path class="cls-3" d="M20.82,410.33c-4.05.77-7.9,1.93-11.38,3.86-2.24,1.24-4.67.93-7.17-.43-.75-.41-1.51-.92-2.27-1.5v6.28c2.74,3.99,5.38,8.04,7.88,12.19,1.23,2.06,2.42,4.15,3.57,6.26,1.83,3.35,3.56,6.76,5.15,10.28,0,0,.06.35.11.82.02.19.03.4.04.62s0,.44-.01.66c-.06.76-.28,1.43-.9,1.42-4.53-1.51-8.74-3.5-12.67-5.86-1.07-.64-2.12-1.32-3.16-2.01v30.83c7.92-11.39,18.57-22.22,22.27-34.86,1.62-5.54-2.45-19.9-1.45-28.57Z"/>
        <path class="cls-13" d="M54.39,360.42c3.74,4.49,7.99,8.29,12.6,11.53-.1-5.84.95-11.33,5.49-15.62.54-.51,1.04-.93,1.53-1.31-3.84-1.39-7.73-2.66-11.69-3.67-6.02-1.95-12.97,4.11-7.92,9.07Z"/>
        <path class="cls-3" d="M54.39,360.42c3.74,4.49,7.99,8.29,12.6,11.53-.1-5.84.95-11.33,5.49-15.62.54-.51,1.04-.93,1.53-1.31-3.84-1.39-7.73-2.66-11.69-3.67-6.02-1.95-12.97,4.11-7.92,9.07Z"/>
        <path class="cls-13" d="M54.58,394.89c.61,2.26.78,4.2.35,5.69-.82,2.82-6.39-1.36-13.17-7.75-1.48.75-2.27,2.25-2.05,4.72.03,3.63,1.02,7,2.65,10.21-2.21.32-4.45.56-6.69.78,3.29,3.18,6.56,6.67,9.97,7.04,8.77.97,17.57-8.17,20.99-16.27-.76.41-1.53.83-2.3,1.23-2.96-2.15-6.39-4.15-9.74-5.65Z"/>
        <path class="cls-3" d="M54.58,394.89c.61,2.26.78,4.2.35,5.69-.82,2.82-6.39-1.36-13.17-7.75-1.48.75-2.27,2.25-2.05,4.72.03,3.63,1.02,7,2.65,10.21-2.21.32-4.45.56-6.69.78,3.29,3.18,6.56,6.67,9.97,7.04,8.77.97,17.57-8.17,20.99-16.27-.76.41-1.53.83-2.3,1.23-2.96-2.15-6.39-4.15-9.74-5.65Z"/>
        <path class="cls-13" d="M144.98,287.96c-4.07,1.23-8.13,2.47-12.17,3.79-9.42,3.06-18.68,6.5-27.51,10.95-1.26.64-2.51,1.29-3.75,1.97.99,2.48,1.93,4.97,2.84,7.47,8.71-.11,17.42-1.84,26.19-3.88-2.4,10.07-5.85,20.03-10.54,29.84-2.94,6.14-6.24,12.22-9.92,18.11,7.13-5.68,13.64-14.04,16.96-19.62,4.95-8.34,3.26-33.55,17.49-34.69,8.07-.64,9.48,9.69,18.5,9.73,7.37-8.48,15.01-16.5,23.41-22.77,3.13-3.19,7.24-3.54,10.7-5.79,3.54-3.44,7.21-6.69,11.03-9.73-.12-.06-.25-.12-.37-.18-.01,0-.02-.01-.03-.02-.12-.06-.23-.12-.35-.19,0,0,0,0-.01,0-.41-.23-.82-.48-1.28-.73-.04-.02-.08-.04-.12-.06-.09-.05-.19-.1-.28-.15-.05-.03-.11-.05-.16-.08-.09-.04-.17-.09-.26-.13-.14-.07-.28-.13-.43-.2-.06-.03-.13-.05-.19-.07-.1-.04-.19-.08-.29-.11-.07-.03-.14-.05-.22-.07-.1-.03-.2-.07-.3-.09-.08-.02-.16-.04-.24-.06-.1-.03-.21-.05-.31-.08-.08-.02-.17-.03-.25-.05-.11-.02-.22-.04-.33-.06-.09-.01-.18-.03-.27-.04-.12-.01-.24-.02-.36-.03-.09,0-.18-.01-.27-.02-.13,0-.27,0-.41,0-.09,0-.18,0-.28,0-.16,0-.32.01-.48.03-.08,0-.16,0-.25.02-.25.02-.51.05-.78.1-7.86,1.24-15.47,3.97-22.83,6.66,1.2,3.83,1.83,7.71,1.14,11.45-.26,7.94-3.09,13.25-12.7-7.41-2.68.88-5.38,1.72-8.09,2.55-1.35.42-2.71.83-4.06,1.24-2.71.82-5.43,1.63-8.14,2.45Z"/>
        <path class="cls-3" d="M144.98,287.96c-4.07,1.23-8.13,2.47-12.17,3.79-9.42,3.06-18.68,6.5-27.51,10.95-1.26.64-2.51,1.29-3.75,1.97.99,2.48,1.93,4.97,2.84,7.47,8.71-.11,17.42-1.84,26.19-3.88-2.4,10.07-5.85,20.03-10.54,29.84-2.94,6.14-6.24,12.22-9.92,18.11,7.13-5.68,13.64-14.04,16.96-19.62,4.95-8.34,3.26-33.55,17.49-34.69,8.07-.64,9.48,9.69,18.5,9.73,7.37-8.48,15.01-16.5,23.41-22.77,3.13-3.19,7.24-3.54,10.7-5.79,3.54-3.44,7.21-6.69,11.03-9.73-.12-.06-.25-.12-.37-.18-.01,0-.02-.01-.03-.02-.12-.06-.23-.12-.35-.19,0,0,0,0-.01,0-.41-.23-.82-.48-1.28-.73-.04-.02-.08-.04-.12-.06-.09-.05-.19-.1-.28-.15-.05-.03-.11-.05-.16-.08-.09-.04-.17-.09-.26-.13-.14-.07-.28-.13-.43-.2-.06-.03-.13-.05-.19-.07-.1-.04-.19-.08-.29-.11-.07-.03-.14-.05-.22-.07-.1-.03-.2-.07-.3-.09-.08-.02-.16-.04-.24-.06-.1-.03-.21-.05-.31-.08-.08-.02-.17-.03-.25-.05-.11-.02-.22-.04-.33-.06-.09-.01-.18-.03-.27-.04-.12-.01-.24-.02-.36-.03-.09,0-.18-.01-.27-.02-.13,0-.27,0-.41,0-.09,0-.18,0-.28,0-.16,0-.32.01-.48.03-.08,0-.16,0-.25.02-.25.02-.51.05-.78.1-7.86,1.24-15.47,3.97-22.83,6.66,1.2,3.83,1.83,7.71,1.14,11.45-.26,7.94-3.09,13.25-12.7-7.41-2.68.88-5.38,1.72-8.09,2.55-1.35.42-2.71.83-4.06,1.24-2.71.82-5.43,1.63-8.14,2.45Z"/>
        <path class="cls-12" d="M129.77,348.51c11.68-10.36,22.19-24.14,33.28-36.89-9.01-.04-10.42-10.37-18.5-9.73-14.23,1.13-12.54,26.35-17.49,34.69-3.31,5.58-9.83,13.94-16.96,19.62-2,3.2-4.11,6.34-6.33,9.39-10.16-2.63-19.83-6.98-29.78-10.57-.49.38-1,.8-1.53,1.31-4.54,4.29-5.58,9.78-5.49,15.62,6.69,4.69,14.15,8.18,22.01,10.78-6.7,6.49-14.15,12.14-22.37,16.59-3.42,8.1-12.22,17.23-20.99,16.27-3.41-.38-6.68-3.87-9.97-7.04-5.04.49-10.09.88-14.85,1.79-.99,8.67,3.07,23.03,1.45,28.57-3.7,12.63-14.36,23.47-22.27,34.86v1.29c23.89-25.26,93.22-95.87,129.77-126.54Z"/>
        <path class="cls-3" d="M129.77,348.51c11.68-10.36,22.19-24.14,33.28-36.89-9.01-.04-10.42-10.37-18.5-9.73-14.23,1.13-12.54,26.35-17.49,34.69-3.31,5.58-9.83,13.94-16.96,19.62-2,3.2-4.11,6.34-6.33,9.39-10.16-2.63-19.83-6.98-29.78-10.57-.49.38-1,.8-1.53,1.31-4.54,4.29-5.58,9.78-5.49,15.62,6.69,4.69,14.15,8.18,22.01,10.78-6.7,6.49-14.15,12.14-22.37,16.59-3.42,8.1-12.22,17.23-20.99,16.27-3.41-.38-6.68-3.87-9.97-7.04-5.04.49-10.09.88-14.85,1.79-.99,8.67,3.07,23.03,1.45,28.57-3.7,12.63-14.36,23.47-22.27,34.86v1.29c23.89-25.26,93.22-95.87,129.77-126.54Z"/>
        <path class="cls-9" d="M12.96,388.08c-.93-7.8-4.13-15.59-7.01-24.28-2.16-6.52-6.06-13.92.88-19.48,3.91-3.13,8.2.2,12.46-2.18,12.11-6.79,6.61-22.29-1.22-29.15-5.19-4.54-30.83-24.04-8.91-25.55,9.4-.65,18.91,13.2,24.75-1.37,5.7-14.21-11.22-26.98-10.63-40.84,1.02-23.82,16.3-1.44,24.64,2.85,9.39,4.83,16.17-.54,21.36-10.37,6.84-12.95,7.35-34.04,22.61-41.51,4.2-2.06,6.85-2.02,8.41-.72,5.82-9.85,11.27-17.94,15.56-21.72-.16-.45-.32-.91-.48-1.37-16.19,1.3-32.85,4.79-48.98,10.3,2.02,9.2,4.83,18.5,6.72,27.56.44,3.69.39,8.39-.53,12.18-1.31,5.44-4.4,8.99-10.33,4.92-2.16-1.53-3.98-3.21-5.53-5-7.78-9.03-8.37-21.11-6.88-33.18-.97.43-1.94.87-2.91,1.32-.32.15-.65.29-.97.44-1.93.9-3.84,1.84-5.73,2.8-5.7,2.88-11.25,6.04-16.6,9.46-.12.08-.25.16-.37.24-.22.14-.44.29-.67.43-4.42,2.87-8.7,5.92-12.81,9.15-.13.1-.25.2-.38.3-3.22,2.54-6.33,5.2-9.32,7.96-.03.03-.06.06-.1.09v15.22c.55,1.26,1.13,2.51,1.73,3.76,2.25,4.7,4.72,9.38,6.81,14.32.72,1.69,1.39,3.4,1.99,5.15.33.74.58,1.49.8,2.23,1.06,3.68.76,7.27-.78,10.35-.78,1.57-1.89,3-3.29,4.23-.49.43-1.01.85-1.57,1.23-1,0-3.99,1.03-5,.04-.24-.22-.46-.45-.69-.67v95.67c.92,2.4.83,4.82,0,7.13v32.25c.76.59,1.52,1.09,2.27,1.5,3.53-8.73,7.1-17.26,10.69-25.68Z"/>
        <path class="cls-14" d="M53.23,289.28c5.45-16.23,12.64-31.07,20.82-45.7,7.78-14.25,17.44-33.2,26.24-48.09-1.56-1.3-4.21-1.34-8.41.72-15.26,7.47-15.77,28.56-22.61,41.51-5.19,9.82-11.97,15.2-21.36,10.37-8.33-4.29-23.62-26.67-24.64-2.85-.59,13.86,16.32,26.63,10.63,40.84-5.84,14.57-15.35.72-24.75,1.37-21.92,1.51,3.72,21,8.91,25.55,7.84,6.86,13.33,22.36,1.22,29.15-4.26,2.39-8.55-.95-12.46,2.18-6.95,5.56-3.04,12.96-.88,19.48,2.88,8.69,6.08,16.48,7.01,24.28,14.03-32.91,28.24-64.1,40.27-98.8Z"/>
        <path class="cls-9" d="M100.3,195.49c4.22,3.52.4,16.37-2.65,22.61-4.83,9.89-23.98,28.49-14.57,39.98,8.28,10.11,28.67-2.45,35.05,9.29,7.06,13-13.81,12.2-20.9,12.96-12.92,1.39-30.11,8.35-30.56,24-.52,18.2,18.77,16.92,27.3,27.12,6.27,7.49,3.47,14.4-5.63,14.67-15.38.47-31.1-17.39-43.2,3.01-8.12,13.69,8.8,21.41,5.14,31.94-3.03,8.72-17.91,5.59-24.7,9.38-7.64,4.26-11.42,12.47-16.14,19.41.25.06-.16.58-.69,1,.23-.33.46-.67.69-1-.2-.05-.8.18-2.07.96,5.33-8.08,6.46-15.41,5.59-22.74-3.59,8.42-7.17,16.95-10.69,25.68,2.5,1.36,4.94,1.67,7.17.43,3.47-1.93,7.32-3.08,11.38-3.86,4.77-.91,9.81-1.3,14.85-1.79,2.24-.22,4.48-.46,6.69-.78-1.63-3.21-2.62-6.58-2.65-10.21-.23-2.46.57-3.96,2.05-4.72,2.7-1.37,7.66-.25,12.83,2.06,3.35,1.5,6.79,3.5,9.74,5.65.78-.39,1.54-.81,2.3-1.23,8.22-4.45,15.67-10.1,22.37-16.59-7.86-2.59-15.32-6.09-22.01-10.78-4.61-3.24-8.86-7.04-12.6-11.53-5.04-4.96,1.91-11.02,7.92-9.07,3.97,1.01,7.85,2.28,11.69,3.67,9.94,3.58,19.61,7.94,29.78,10.57,2.23-3.05,4.33-6.2,6.33-9.39,3.68-5.88,6.99-11.97,9.92-18.11,4.69-9.8,8.14-19.77,10.54-29.84-8.76,2.04-17.48,3.77-26.19,3.88h0c-6.48.08-12.95-.72-19.44-2.98-4.02-1.97-6.07-7.95-1.09-10.99,16.31-8.76,34.99-1.2,50-8.65,1.86-16.25,1.3-32.68-.94-49.03-.35-2.55-.74-5.09-1.17-7.64-1.78,1.28-3.56,2.57-5.36,3.83-6.56,4.62-13.31,8.9-20.96,11.3-8.97,3.08-17.08-9.86-8.13-14.93,2.86-1.64,5.69-3.18,8.48-4.68,7.84-4.21,15.39-8.07,22.5-12.73-3.3-14.15-7.6-28.16-12.43-41.88-4.29,3.78-9.74,11.87-15.56,21.72Z"/>
        <path class="cls-4" d="M100.3,195.49c4.22,3.52.4,16.37-2.65,22.61-4.83,9.89-23.98,28.49-14.57,39.98,8.28,10.11,28.67-2.45,35.05,9.29,7.06,13-13.81,12.2-20.9,12.96-12.92,1.39-30.11,8.35-30.56,24-.52,18.2,18.77,16.92,27.3,27.12,6.27,7.49,3.47,14.4-5.63,14.67-15.38.47-31.1-17.39-43.2,3.01-8.12,13.69,8.8,21.41,5.14,31.94-3.03,8.72-17.91,5.59-24.7,9.38-7.64,4.26-11.42,12.47-16.14,19.41.25.06-.16.58-.69,1,.23-.33.46-.67.69-1-.2-.05-.8.18-2.07.96,5.33-8.08,6.46-15.41,5.59-22.74-3.59,8.42-7.17,16.95-10.69,25.68,2.5,1.36,4.94,1.67,7.17.43,3.47-1.93,7.32-3.08,11.38-3.86,4.77-.91,9.81-1.3,14.85-1.79,2.24-.22,4.48-.46,6.69-.78-1.63-3.21-2.62-6.58-2.65-10.21-.23-2.46.57-3.96,2.05-4.72,2.7-1.37,7.66-.25,12.83,2.06,3.35,1.5,6.79,3.5,9.74,5.65.78-.39,1.54-.81,2.3-1.23,8.22-4.45,15.67-10.1,22.37-16.59-7.86-2.59-15.32-6.09-22.01-10.78-4.61-3.24-8.86-7.04-12.6-11.53-5.04-4.96,1.91-11.02,7.92-9.07,3.97,1.01,7.85,2.28,11.69,3.67,9.94,3.58,19.61,7.94,29.78,10.57,2.23-3.05,4.33-6.2,6.33-9.39,3.68-5.88,6.99-11.97,9.92-18.11,4.69-9.8,8.14-19.77,10.54-29.84-8.76,2.04-17.48,3.77-26.19,3.88h0c-6.48.08-12.95-.72-19.44-2.98-4.02-1.97-6.07-7.95-1.09-10.99,16.31-8.76,34.99-1.2,50-8.65,1.86-16.25,1.3-32.68-.94-49.03-.35-2.55-.74-5.09-1.17-7.64-1.78,1.28-3.56,2.57-5.36,3.83-6.56,4.62-13.31,8.9-20.96,11.3-8.97,3.08-17.08-9.86-8.13-14.93,2.86-1.64,5.69-3.18,8.48-4.68,7.84-4.21,15.39-8.07,22.5-12.73-3.3-14.15-7.6-28.16-12.43-41.88-4.29,3.78-9.74,11.87-15.56,21.72Z"/>
        <path class="cls-14" d="M9.44,409.85c-.23.34-.46.67-.69,1,.53-.43.94-.94.69-1Z"/>
        <path class="cls-4" d="M9.44,409.85c-.23.34-.46.67-.69,1,.53-.43.94-.94.69-1Z"/>
        <path class="cls-14" d="M7.37,410.82c1.27-.78,1.87-1.01,2.07-.96,4.73-6.95,8.51-15.15,16.14-19.41,6.8-3.79,21.67-.66,24.7-9.38,3.66-10.52-13.26-18.25-5.14-31.94,12.1-20.39,27.82-2.54,43.2-3.01,9.1-.28,11.9-7.19,5.63-14.67-8.54-10.2-27.82-8.91-27.3-27.12.45-15.65,17.64-22.61,30.56-24,7.08-.76,27.96.04,20.9-12.96-6.38-11.75-26.76.82-35.05-9.29-9.41-11.49,9.73-30.09,14.57-39.98,3.05-6.24,6.87-19.09,2.65-22.61-8.8,14.9-18.46,33.84-26.24,48.09-8.18,14.63-15.38,29.47-20.82,45.7-12.03,34.7-26.24,65.89-40.27,98.8.87,7.33-.26,14.66-5.59,22.74Z"/>
        <path class="cls-4" d="M7.37,410.82c1.27-.78,1.87-1.01,2.07-.96,4.73-6.95,8.51-15.15,16.14-19.41,6.8-3.79,21.67-.66,24.7-9.38,3.66-10.52-13.26-18.25-5.14-31.94,12.1-20.39,27.82-2.54,43.2-3.01,9.1-.28,11.9-7.19,5.63-14.67-8.54-10.2-27.82-8.91-27.3-27.12.45-15.65,17.64-22.61,30.56-24,7.08-.76,27.96.04,20.9-12.96-6.38-11.75-26.76.82-35.05-9.29-9.41-11.49,9.73-30.09,14.57-39.98,3.05-6.24,6.87-19.09,2.65-22.61-8.8,14.9-18.46,33.84-26.24,48.09-8.18,14.63-15.38,29.47-20.82,45.7-12.03,34.7-26.24,65.89-40.27,98.8.87,7.33-.26,14.66-5.59,22.74Z"/>
        <path class="cls-5" d="M233.18,480.59c-.1-1.92-.47-5.81-.59-10.09-.5.52-1.04,1-1.65,1.42-4.83,3.32-9.75,6.53-14.75,9.65-1.32-4.34-2.76-8.64-4.24-12.92-.48,1.41-1.07,2.79-1.76,4.12.76,3.7,1.49,7.41,2.2,11.13-6.22,3.8-12.54,7.43-18.93,10.95-4.75-12.41-9.13-24.78-12.67-37.55.96,11.68,2.04,23.95,4.05,33.57.71,3.37-.3,6.78-2.53,9.21h9.66c2.31-3.68,5.39-6.48,10.87-5.78,3.74.48,5,3.65,7.38,5.78h14.44c5.84-4.06,8.85-12.71,8.5-19.51Z"/>
        <path class="cls-5" d="M226.05,423.62c1.94,11.14,4.63,22.11,7.86,32.95,1.01-2.82,2.72-4.48,5.49-3.82-4.61-9.5-8.33-19.49-12.2-29.39-.39.07-.77.15-1.16.26Z"/>
        <path class="cls-5" d="M360.4,424.7c-5.21,7.85-9.94,16.34-15.13,23.99-5.71,7.03-17.8,16.13-19.83,4.09-2.42-15.76,7.16-26.69,18.8-35.48-13.62-5.54-27.83-9.59-42.13-11.79-1.6,1.85-3.2,3.7-4.8,5.55-2.35-2.31-4.71-4.62-7.06-6.94-3.07-.24-6.13-.41-9.18-.47-.39.59-.76,1.18-1.12,1.78,1.56,3,3.19,5.97,4.87,8.91,2.27,3.97,1.76,8.95-1.33,12.32-1.55,1.7-3.12,3.39-4.7,5.06-2.71,2.87-5.52,5.68-8.39,8.44-.94-1.58-1.93-3.13-2.94-4.67-.41.9-.83,1.79-1.29,2.68-1.4,3.43-3.64,6-6.37,7.59.33,1.07.64,2.14.98,3.21-4.2,3.66-8.55,7.2-12.99,10.65,3.98,7.32,3.29,18.72,15.77,13.62,14.17-5.79,11.58-26.82,21.95-36.04,17.82-15.84,12.37,10.71,15.09,19.68,3.06,10.11,11.64,11.24,22.3,8.13,14.06-4.09,29.57-18.4,45.55-12.63,4.4,1.59,6.22,3.52,6.37,5.54,11.13-2.67,20.73-4.38,26.43-3.93.22-.43.44-.86.65-1.29-12.2-10.73-26.29-20.27-41.47-28.03Z"/>
        <path class="cls-6" d="M274.67,489.37c15.45-7.37,31.12-12.52,47.32-16.83,15.66-4.32,35.98-10.56,52.81-14.59-.15-2.03-1.97-3.95-6.37-5.54-15.98-5.77-31.49,8.54-45.55,12.63-10.66,3.1-19.24,1.97-22.3-8.13-2.71-8.97,2.74-35.52-15.09-19.68-10.37,9.21-7.78,30.25-21.95,36.04-12.47,5.09-11.79-6.3-15.77-13.62-1.11.86-2.22,1.72-3.34,2.57-1.8-3.08-3.46-6.24-5.02-9.45-2.78-.66-4.48,1-5.49,3.82.36,1.19.71,2.38,1.08,3.57,1.14,3.69.18,7.65-2.4,10.37.12,4.28.49,8.16.59,10.09.34,6.8-2.66,15.44-8.5,19.51h25.68c8.06-3.39,16.15-6.94,24.31-10.73Z"/>
        <path class="cls-6" d="M202.86,494.31c-5.48-.7-8.56,2.1-10.87,5.78h18.25c-2.38-2.14-3.64-5.31-7.38-5.78Z"/>
        <path class="cls-5" d="M344.04,499.83c-1.15-.51-2.28-1.07-3.39-1.67-2.04-1.04-3.37-2.69-4.08-4.56-2.24-5.87,1.66-13.87,9.15-11.67,2.9.84,5.72,1.71,8.49,2.59,8.77,2.78,17.03,5.63,25.57,7.56,7.06-10.95,13.47-22.4,19.4-34.02.69-1.34,1.37-2.69,2.04-4.04-5.7-.45-15.3,1.26-26.43,3.93.41,5.48-11.48,11.68-18.09,13.82-10.47,3.4-37.15,2.58-38.86,17.34-.49,4.26,1.68,7.76,4.67,10.99h22.15c-.07-.03-.15-.06-.22-.09-.14-.06-.28-.12-.42-.18Z"/>
        <path class="cls-2" d="M344.04,499.83c-1.15-.51-2.28-1.07-3.39-1.67-2.04-1.04-3.37-2.69-4.08-4.56-2.24-5.87,1.66-13.87,9.15-11.67,2.9.84,5.72,1.71,8.49,2.59,8.77,2.78,17.03,5.63,25.57,7.56,7.06-10.95,13.47-22.4,19.4-34.02.69-1.34,1.37-2.69,2.04-4.04-5.7-.45-15.3,1.26-26.43,3.93.41,5.48-11.48,11.68-18.09,13.82-10.47,3.4-37.15,2.58-38.86,17.34-.49,4.26,1.68,7.76,4.67,10.99h22.15c-.07-.03-.15-.06-.22-.09-.14-.06-.28-.12-.42-.18Z"/>
        <path class="cls-6" d="M317.85,489.11c1.71-14.76,28.39-13.94,38.86-17.34,6.6-2.15,18.49-8.34,18.09-13.82-16.83,4.04-37.15,10.27-52.81,14.59-16.2,4.3-31.87,9.45-47.32,16.83-8.15,3.79-16.24,7.34-24.31,10.73h72.16c-2.99-3.23-5.17-6.73-4.67-10.99Z"/>
        <path class="cls-2" d="M317.85,489.11c1.71-14.76,28.39-13.94,38.86-17.34,6.6-2.15,18.49-8.34,18.09-13.82-16.83,4.04-37.15,10.27-52.81,14.59-16.2,4.3-31.87,9.45-47.32,16.83-8.15,3.79-16.24,7.34-24.31,10.73h72.16c-2.99-3.23-5.17-6.73-4.67-10.99Z"/>
        <path class="cls-9" d="M180.56,454.37c.08.98.16,1.96.24,2.94,3.54,12.77,7.91,25.14,12.67,37.55-4.9-12.8-9.14-26.7-12.6-40.43-.1-.02-.2-.04-.3-.06Z"/>
        <path class="cls-9" d="M42.55,494.15c-1.85-.52-3.66-1.11-5.43-1.79-5.61-2.15-10.82-5.04-15.85-8.29-2.69-1.73-5.93-2.1-8.83-1.2-1.51.47-2.92,1.28-4.12,2.44l-.06.06c1.89,1.69,3.84,3.3,5.81,4.89,3.89,3.14,7.85,6.2,11.58,9.57.1.09.21.18.31.27h13.06c1.58-1.73,2.62-3.8,3.52-5.95Z"/>
        <path class="cls-9" d="M278.01,383.21c6.34-4.97,13.86-9.66,22.14-10.13,2.57-1.57,5.12-3.13,7.7-4.71,12.53-7.51,25.78-12.69,39.47-16.03-6.78-3.87-19.31-4.15-27.91-4.47-.77-.03-1.56-.05-2.34-.07-3.12,4.82-6.79,9.19-8.4,14.65-1.65-4.77-1.84-9.75-1.11-14.73-5.93.06-11.98.34-18.1.78-1.2,8.79-1.98,17.35-2.74,25.9-2.31-2.16-4.63-4.31-5.18-7.42-.61-5.84-1.5-11.75-2.94-17.5-1.98.21-3.97.45-5.96.7-2.19.28-4.39.57-6.59.89-1.93.28-3.86.57-5.79.88.04,8.14-1.48,16.53.84,24.47,5.81-.44,11.75,1.43,16.93,6.76Z"/>
        <path class="cls-9" d="M224.98,401.73c7.69-2.99,11.3-9.15,16.46-14.81,4.89-5.36,11.56-9.47,18.5-10.36-3.19-4.6-5.78-9.62-8.12-14.81-2.03-4.5-6.93-7-11.76-5.94-3.16.69-6.31,1.43-9.45,2.2,1.91,11.59,6.35,23.16,3.98,35.69-4.29-11.76-10.76-21.9-17.13-32.21-5.19,1.48-10.32,3.07-15.37,4.75,6.52,11.38,11,23.78,14.58,36.11,2.06.74,4.3.92,8.3-.63Z"/>
        <path class="cls-9" d="M136.23,402.11c-3.23-3.39-8.34-4.21-12.47-2.01-1.47.78-2.93,1.57-4.38,2.36,3.09,4.63,6.35,9.23,9.62,13.85,2.3,3.25,4.59,6.5,6.83,9.77,1.78,2.61,3.53,5.23,5.21,7.87,2.04-6.94,5-12.93,14.41-13.4-6.77-5.77-13.08-11.99-19.21-18.43Z"/>
        <path class="cls-9" d="M18.88,498.26c-5.11-2.61-10-5.62-14.77-8.82-1.39,1.38-2.76,2.78-4.11,4.18v6.48h22.69c-.2-.09-.41-.18-.61-.27-1.08-.5-2.15-1.03-3.21-1.57Z"/>
        <path class="cls-9" d="M173.1,402.81c-3.9-3.85-7.61-7.88-11.29-11.91-1.98-2.17-3.95-4.34-5.94-6.49-4.44,1.98-8.85,4.05-13.24,6.16,2.27,3.11,4.44,6.25,6.56,9.39,4.86,7.21,9.45,14.47,14.39,21.67,8.63,2.57,13.93,7.68,19.91-6.58.37-.88.53-1.69.59-2.46-3.88-3.04-7.5-6.33-10.98-9.77Z"/>
        <path class="cls-9" d="M168.24,380.68c5.67,8.18,11.39,16.55,16.88,24.92.2-.3.42-.61.7-.93,3.87-4.42,17.14-6.31,22.68-5.32,1.37.24,2.5.59,3.5.97-6.43-7.7-12.41-15.8-18.77-23.45-2.89-3.48-7.67-4.73-11.89-3.09-3.95,1.53-7.9,3.12-11.84,4.75-.72.3-1.44.58-2.15.88.29.42.58.84.88,1.26Z"/>
        <path class="cls-9" d="M101.49,436.11c-2.59-2.8-5.19-5.61-7.8-8.39-3.5-3.74-9.22-4.41-13.47-1.54-1.31.88-2.61,1.76-3.9,2.66,1.83,2.88,3.68,5.81,5.54,8.75,2.95,4.66,5.92,9.37,8.87,14.04,1.92,3.04,3.84,6.07,5.73,9.06,1.07-1.54,2.41-2.92,4.17-4.03,6.71-4.21,13.15-1.6,19.5-.82-1.93-1.96-3.84-3.93-5.74-5.92-4.35-4.55-8.63-9.17-12.9-13.79Z"/>
        <path class="cls-9" d="M64.3,439.03c-.34-.3-.68-.61-1.02-.91-1.02.75-2.02,1.52-3.03,2.28-2.09,1.58-4.16,3.17-6.21,4.78,7.76,9.44,16.45,17.02,23.14,27.46-8.58-4.89-16.84-10.5-25.16-16.11-.58-.39-1.18-.71-1.81-.97-3.62-1.52-7.86-.92-10.92,1.72-.49.42-.98.85-1.47,1.27-.07.06-.15.13-.22.19,6.43,5.95,11.63,13.19,17.64,19.45.24.25.48.49.72.73,6.73-1.09,12.54,5.2,21.79,4.26,13.44-1.37,13.18-12.14,17.34-20.24-6.99-3.9-13.27-8.68-19.3-13.79-3.9-3.3-7.69-6.73-11.5-10.14Z"/>
        <path class="cls-9" d="M108.43,408.59c-3.2,1.84-6.36,3.73-9.52,5.65-1.43.87-2.86,1.73-4.28,2.61,4.05,4.35,7.41,9.27,10.57,14.37,3.54,5.72,6.82,11.67,10.48,17.37,1.61,2.5,3.3,4.95,5.11,7.31,4.3.43,8.55-.11,12.83-4.33,3.31-3.26,4.77-7.96,6.06-12.72-2.95-2.28-5.75-4.74-8.46-7.32-7.77-7.39-14.84-15.69-22.79-22.94Z"/>
        <path class="cls-9" d="M24.31,470.5c-.24.22-.49.43-.73.65,6.39,7.35,9.31,17.67,19.05,22.81,1.45-3.48,2.58-7.14,5.13-9.9,2.27-2.46,4.33-3.87,6.29-4.61-7.75-4.91-15.56-9.78-23.31-14.69-2.16,1.91-4.31,3.82-6.44,5.73Z"/>
        <path class="cls-14" d="M294.03,380.38c.3-.19.59-.39.89-.58-.91-.5-1.81-1.01-2.69-1.54.59.72,1.2,1.41,1.8,2.12Z"/>
        <path class="cls-14" d="M204.87,450.22c.13-.15.25-.3.38-.45-1.11-3.12-2.21-6.25-3.26-9.37,1.03,3.25,1.99,6.53,2.88,9.82Z"/>
        <path class="cls-14" d="M111.94,482.75c.05,0,.1,0,.15,0-.04-.19-.08-.38-.12-.58-.01.19-.02.39-.03.58Z"/>
        <path class="cls-14" d="M255.18,418.94c-3.27-3.91-4.78-8.78-6.3-13.65,1.7,7.42,3.53,14.77,5.52,22.05,2.03-.17,3.99-.72,5.87-1.84-1.68-2.2-3.38-4.38-5.09-6.56Z"/>
        <path class="cls-14" d="M87.55,497.78c-.42-2.07-.82-4.14-1.2-6.21-.12,2.85-.19,5.69-.24,8.53h.12c.05-.09.11-.18.16-.27.4-.68.79-1.36,1.16-2.05Z"/>
        <path class="cls-14" d="M226.05,423.62c.38-.1.77-.19,1.16-.26-.67-1.72-1.35-3.44-2.04-5.15.27,1.81.57,3.61.88,5.41Z"/>
        <path class="cls-14" d="M180.42,452.62c.05.58.1,1.17.14,1.76.1.02.2.04.3.06-.15-.61-.3-1.21-.45-1.82Z"/>
        <path class="cls-14" d="M95.29,484.4c28.48-13.2,57.22-33.54,83.66-47.55.15,1.29.29,2.65.43,4.03,31.81-16.84,62.22-32.56,93.31-51.15.53,1.34,1.09,2.67,1.67,3.99.91-.77,1.87-1.55,2.89-2.36-.92-.9-1.85-1.81-2.76-2.7,8.53-5.11,17.08-10.31,25.67-15.57-8.27.47-15.8,5.15-22.14,10.13-5.18-5.34-11.11-7.21-16.93-6.76-.38.03-.76.07-1.14.11-6.94.89-13.61,5-18.5,10.36-5.16,5.66-8.77,11.82-16.46,14.81-3.99,1.55-6.24,1.38-8.3.63-1.46-.53-2.84-1.34-4.68-2.05-1-.38-2.14-.73-3.5-.97-5.54-.99-18.81.9-22.68,5.32-.28.32-.5.63-.7.93-.05.08-.1.15-.14.23-1.45,2.39-.71,4.38-.9,6.75-.06.77-.22,1.58-.59,2.46-5.98,14.26-11.28,9.15-19.91,6.58-2.21-.66-4.63-1.15-7.35-1.11-.28,0-.53.03-.8.04-9.42.46-12.37,6.46-14.41,13.4-.47,1.6-.9,3.26-1.34,4.9-1.29,4.76-2.75,9.46-6.06,12.72-4.27,4.22-8.53,4.76-12.83,4.33-.22-.02-.44-.05-.65-.07-6.35-.78-12.8-3.39-19.5.82-1.76,1.11-3.1,2.49-4.17,4.03-.5.73-.95,1.49-1.35,2.28-4.16,8.1-3.89,18.87-17.34,20.24-9.25.94-15.06-5.34-21.79-4.26-.62.1-1.25.27-1.9.51,0,0-.01,0-.02,0-1.96.73-4.02,2.15-6.29,4.61-2.55,2.76-3.69,6.43-5.13,9.9-.03.06-.05.12-.08.19-.9,2.15-1.94,4.22-3.52,5.95h17.1c12.81-5.44,25.42-9.72,39.17-15.7Z"/>
        <path class="cls-9" d="M266.28,406.02c-1.46,6.82,2.05,12.64-3.8,17.85-.72.64-1.46,1.18-2.21,1.63,2.5,3.28,4.92,6.59,7.18,10,1.02,1.54,2.01,3.09,2.94,4.67,2.87-2.76,5.68-5.57,8.39-8.44,1.59-1.68,3.15-3.37,4.7-5.06,3.09-3.37,3.6-8.35,1.33-12.32-1.68-2.94-3.31-5.91-4.87-8.91-1.68-3.24-3.28-6.52-4.77-9.84-.28-.62-.55-1.25-.82-1.87-3.92,3.31-6.84,6.52-8.08,12.3Z"/>
        <path class="cls-4" d="M266.28,406.02c-1.46,6.82,2.05,12.64-3.8,17.85-.72.64-1.46,1.18-2.21,1.63,2.5,3.28,4.92,6.59,7.18,10,1.02,1.54,2.01,3.09,2.94,4.67,2.87-2.76,5.68-5.57,8.39-8.44,1.59-1.68,3.15-3.37,4.7-5.06,3.09-3.37,3.6-8.35,1.33-12.32-1.68-2.94-3.31-5.91-4.87-8.91-1.68-3.24-3.28-6.52-4.77-9.84-.28-.62-.55-1.25-.82-1.87-3.92,3.31-6.84,6.52-8.08,12.3Z"/>
        <path class="cls-9" d="M191.6,456.09c-4,0-7.32-.93-10.73-1.65,3.47,13.73,7.7,27.63,12.6,40.43,6.38-3.52,12.71-7.15,18.93-10.95-.71-3.72-1.44-7.43-2.2-11.13-1.56-7.57-3.29-15.11-5.32-22.56-3.05,3.48-7.07,5.86-13.27,5.87Z"/>
        <path class="cls-4" d="M191.6,456.09c-4,0-7.32-.93-10.73-1.65,3.47,13.73,7.7,27.63,12.6,40.43,6.38-3.52,12.71-7.15,18.93-10.95-.71-3.72-1.44-7.43-2.2-11.13-1.56-7.57-3.29-15.11-5.32-22.56-3.05,3.48-7.07,5.86-13.27,5.87Z"/>
        <path class="cls-9" d="M259.78,445.77c-1.89-6.1-3.7-12.24-5.39-18.42-8.67.72-18.45-5.54-27.19-3.98,3.87,9.9,7.59,19.89,12.2,29.39,1.56,3.21,3.21,6.37,5.02,9.45,1.12-.85,2.23-1.71,3.34-2.57,4.45-3.45,8.79-6.99,12.99-10.65-.34-1.06-.65-2.14-.98-3.21Z"/>
        <path class="cls-4" d="M259.78,445.77c-1.89-6.1-3.7-12.24-5.39-18.42-8.67.72-18.45-5.54-27.19-3.98,3.87,9.9,7.59,19.89,12.2,29.39,1.56,3.21,3.21,6.37,5.02,9.45,1.12-.85,2.23-1.71,3.34-2.57,4.45-3.45,8.79-6.99,12.99-10.65-.34-1.06-.65-2.14-.98-3.21Z"/>
        <path class="cls-9" d="M223.06,424.78c-9.39,5.04-11.5,17.39-17.81,24.99,2.23,6.27,4.52,12.56,6.71,18.89,1.48,4.28,2.91,8.58,4.24,12.92,5-3.12,9.92-6.34,14.75-9.65.61-.42,1.16-.9,1.65-1.42,2.58-2.72,3.54-6.67,2.4-10.37-.37-1.19-.72-2.38-1.08-3.57-3.23-10.84-5.92-21.82-7.86-32.95-1.02.27-2.02.64-3,1.17Z"/>
        <path class="cls-4" d="M223.06,424.78c-9.39,5.04-11.5,17.39-17.81,24.99,2.23,6.27,4.52,12.56,6.71,18.89,1.48,4.28,2.91,8.58,4.24,12.92,5-3.12,9.92-6.34,14.75-9.65.61-.42,1.16-.9,1.65-1.42,2.58-2.72,3.54-6.67,2.4-10.37-.37-1.19-.72-2.38-1.08-3.57-3.23-10.84-5.92-21.82-7.86-32.95-1.02.27-2.02.64-3,1.17Z"/>
        <path class="cls-14" d="M180.87,454.44c3.41.73,6.73,1.66,10.73,1.65,6.2,0,10.23-2.38,13.27-5.87-.9-3.29-1.85-6.56-2.88-9.82,1.05,3.12,2.15,6.24,3.26,9.37,6.3-7.6,8.42-19.95,17.81-24.99.98-.53,1.98-.9,3-1.17-.31-1.8-.61-3.6-.88-5.41.69,1.71,1.36,3.43,2.04,5.15,8.74-1.56,18.51,4.71,27.19,3.98-1.98-7.28-3.82-14.63-5.52-22.05,1.51,4.87,3.03,9.74,6.3,13.65,1.71,2.18,3.41,4.37,5.09,6.56.75-.45,1.49-.99,2.21-1.63,5.85-5.22,2.34-11.03,3.8-17.85,1.24-5.78,4.16-8.99,8.08-12.3-.57-1.32-1.13-2.65-1.67-3.99-31.09,18.59-61.5,34.31-93.31,51.15.37,3.69.7,7.65,1.04,11.75.15.61.29,1.21.45,1.82Z"/>
        <path class="cls-4" d="M180.87,454.44c3.41.73,6.73,1.66,10.73,1.65,6.2,0,10.23-2.38,13.27-5.87-.9-3.29-1.85-6.56-2.88-9.82,1.05,3.12,2.15,6.24,3.26,9.37,6.3-7.6,8.42-19.95,17.81-24.99.98-.53,1.98-.9,3-1.17-.31-1.8-.61-3.6-.88-5.41.69,1.71,1.36,3.43,2.04,5.15,8.74-1.56,18.51,4.71,27.19,3.98-1.98-7.28-3.82-14.63-5.52-22.05,1.51,4.87,3.03,9.74,6.3,13.65,1.71,2.18,3.41,4.37,5.09,6.56.75-.45,1.49-.99,2.21-1.63,5.85-5.22,2.34-11.03,3.8-17.85,1.24-5.78,4.16-8.99,8.08-12.3-.57-1.32-1.13-2.65-1.67-3.99-31.09,18.59-61.5,34.31-93.31,51.15.37,3.69.7,7.65,1.04,11.75.15.61.29,1.21.45,1.82Z"/>
        <path class="cls-10" d="M178.62,454.01c.05.36.09.73.14,1.09.22-.32.45-.63.68-.95-.27-.05-.54-.1-.82-.14Z"/>
        <path class="cls-4" d="M178.62,454.01c.05.36.09.73.14,1.09.22-.32.45-.63.68-.95-.27-.05-.54-.1-.82-.14Z"/>
        <path class="cls-5" d="M179.44,454.15c-.22.32-.45.63-.68.95,1.61,11.96,3.61,23.93,6.09,35.79-2.01-9.62-3.1-21.88-4.05-33.57-.28-1.02-.55-2.04-.82-3.06-.18-.04-.36-.07-.55-.11Z"/>
        <path class="cls-4" d="M179.44,454.15c-.22.32-.45.63-.68.95,1.61,11.96,3.61,23.93,6.09,35.79-2.01-9.62-3.1-21.88-4.05-33.57-.28-1.02-.55-2.04-.82-3.06-.18-.04-.36-.07-.55-.11Z"/>
        <path class="cls-9" d="M179.99,454.26c.27,1.02.53,2.04.82,3.06-.08-.99-.16-1.97-.24-2.94-.19-.04-.38-.08-.58-.12Z"/>
        <path class="cls-4" d="M179.99,454.26c.27,1.02.53,2.04.82,3.06-.08-.99-.16-1.97-.24-2.94-.19-.04-.38-.08-.58-.12Z"/>
        <path class="cls-9" d="M111.94,482.75c-2.96.15-5.99.3-9.33,1.03-9.31,2.02-11.82,8.02-15.06,14.01.14.68.29,1.37.43,2.05.02.09.04.18.06.27h23.1c0-.09,0-.18.01-.27.2-5.7.47-11.4.79-17.08Z"/>
        <path class="cls-4" d="M111.94,482.75c-2.96.15-5.99.3-9.33,1.03-9.31,2.02-11.82,8.02-15.06,14.01.14.68.29,1.37.43,2.05.02.09.04.18.06.27h23.1c0-.09,0-.18.01-.27.2-5.7.47-11.4.79-17.08Z"/>
        <path class="cls-9" d="M184.86,490.88c-2.48-11.86-4.48-23.83-6.09-35.79-.05-.36-.09-.73-.14-1.09-2.75-.46-5.65-.65-9.11,0-10.67,2-15.28,6.69-22.97,13.19-6.02,5.09-12.81,9.45-20.14,12.73-5.25,2.35-9.7,2.58-14.31,2.81,1.22,5.75,2.57,11.44,3.82,17.09.02.09.04.18.06.27h14.25c0-.09-.01-.18-.02-.27-.48-6.38-.78-12.77-.84-19.17,3.02,6.27,5.82,12.67,8.42,19.17.04.09.07.18.11.27h20.91c-.02-.09-.03-.18-.05-.27-2.09-10.99-3.87-22.12-5.27-33.45,6.48,10.47,9.88,22.09,14.13,33.45.03.09.07.18.1.27h14.62c2.22-2.44,3.23-5.84,2.53-9.21Z"/>
        <path class="cls-4" d="M184.86,490.88c-2.48-11.86-4.48-23.83-6.09-35.79-.05-.36-.09-.73-.14-1.09-2.75-.46-5.65-.65-9.11,0-10.67,2-15.28,6.69-22.97,13.19-6.02,5.09-12.81,9.45-20.14,12.73-5.25,2.35-9.7,2.58-14.31,2.81,1.22,5.75,2.57,11.44,3.82,17.09.02.09.04.18.06.27h14.25c0-.09-.01-.18-.02-.27-.48-6.38-.78-12.77-.84-19.17,3.02,6.27,5.82,12.67,8.42,19.17.04.09.07.18.11.27h20.91c-.02-.09-.03-.18-.05-.27-2.09-10.99-3.87-22.12-5.27-33.45,6.48,10.47,9.88,22.09,14.13,33.45.03.09.07.18.1.27h14.62c2.22-2.44,3.23-5.84,2.53-9.21Z"/>
        <path class="cls-14" d="M86.35,491.57c.37,2.07.77,4.14,1.2,6.21,3.25-5.98,5.75-11.99,15.06-14.01,3.34-.73,6.37-.88,9.33-1.03.01-.19.02-.39.03-.58.04.19.08.38.12.58,4.61-.23,9.07-.46,14.31-2.81,7.33-3.28,14.11-7.64,20.14-12.73,7.69-6.5,12.3-11.2,22.97-13.19,3.45-.65,6.36-.46,9.11,0,.27.05.55.09.82.14.18.03.36.07.55.11.19.04.38.08.58.12-.05-.59-.1-1.17-.14-1.76-.91-3.67-1.78-7.32-2.57-10.93.51-.27,1.02-.54,1.53-.81-.14-1.38-.28-2.73-.43-4.03-26.44,14.01-55.18,34.35-83.66,47.55-13.75,5.98-26.36,10.26-39.17,15.7h29.99c.05-2.84.12-5.68.24-8.53Z"/>
        <path class="cls-4" d="M86.35,491.57c.37,2.07.77,4.14,1.2,6.21,3.25-5.98,5.75-11.99,15.06-14.01,3.34-.73,6.37-.88,9.33-1.03.01-.19.02-.39.03-.58.04.19.08.38.12.58,4.61-.23,9.07-.46,14.31-2.81,7.33-3.28,14.11-7.64,20.14-12.73,7.69-6.5,12.3-11.2,22.97-13.19,3.45-.65,6.36-.46,9.11,0,.27.05.55.09.82.14.18.03.36.07.55.11.19.04.38.08.58.12-.05-.59-.1-1.17-.14-1.76-.91-3.67-1.78-7.32-2.57-10.93.51-.27,1.02-.54,1.53-.81-.14-1.38-.28-2.73-.43-4.03-26.44,14.01-55.18,34.35-83.66,47.55-13.75,5.98-26.36,10.26-39.17,15.7h29.99c.05-2.84.12-5.68.24-8.53Z"/>
        <path class="cls-14" d="M179.38,440.87c-.51.27-1.02.54-1.53.81.8,3.61,1.66,7.27,2.57,10.93-.34-4.1-.67-8.06-1.04-11.75Z"/>
        <path class="cls-4" d="M179.38,440.87c-.51.27-1.02.54-1.53.81.8,3.61,1.66,7.27,2.57,10.93-.34-4.1-.67-8.06-1.04-11.75Z"/>
        <path class="cls-4" d="M179.38,440.87c-.51.27-1.02.54-1.53.81.8,3.61,1.66,7.27,2.57,10.93-.34-4.1-.67-8.06-1.04-11.75Z"/>
        <path class="cls-9" d="M300.15,373.08c1.03-.06,2.07-.06,3.12.02-2.32,2.46-5.23,4.64-8.35,6.7,6.3,3.45,13.15,6.12,19.69,9.23.44.21.89.41,1.32.63.28-.32.57-.63.85-.95,2.64-2.96,5.31-5.89,8.03-8.8-4.53-4.39-9.11-8.74-13.74-13.06,6.68,1.97,12.88,4.63,19.1,7.45,6.44-6.62,13.19-13.05,20.5-19.15-.82-1.11-1.98-2.02-3.35-2.81-13.69,3.34-26.94,8.51-39.47,16.03-2.58,1.59-5.13,3.14-7.7,4.71Z"/>
        <path class="cls-4" d="M300.15,373.08c1.03-.06,2.07-.06,3.12.02-2.32,2.46-5.23,4.64-8.35,6.7,6.3,3.45,13.15,6.12,19.69,9.23.44.21.89.41,1.32.63.28-.32.57-.63.85-.95,2.64-2.96,5.31-5.89,8.03-8.8-4.53-4.39-9.11-8.74-13.74-13.06,6.68,1.97,12.88,4.63,19.1,7.45,6.44-6.62,13.19-13.05,20.5-19.15-.82-1.11-1.98-2.02-3.35-2.81-13.69,3.34-26.94,8.51-39.47,16.03-2.58,1.59-5.13,3.14-7.7,4.71Z"/>
        <path class="cls-9" d="M290.25,404.12c2.36,2.32,4.71,4.64,7.06,6.94,1.6-1.85,3.2-3.7,4.8-5.55,2.44-2.82,4.87-5.65,7.32-8.47-2.05-2.06-4.07-4.16-6.07-6.28-3.19-3.37-6.31-6.82-9.33-10.39-5.55,3.58-11.69,6.87-16.55,10.78-.08.07-.16.13-.25.2,1.11,1.09,2.23,2.17,3.35,3.27,3.21,3.15,6.44,6.32,9.66,9.5Z"/>
        <path class="cls-4" d="M290.25,404.12c2.36,2.32,4.71,4.64,7.06,6.94,1.6-1.85,3.2-3.7,4.8-5.55,2.44-2.82,4.87-5.65,7.32-8.47-2.05-2.06-4.07-4.16-6.07-6.28-3.19-3.37-6.31-6.82-9.33-10.39-5.55,3.58-11.69,6.87-16.55,10.78-.08.07-.16.13-.25.2,1.11,1.09,2.23,2.17,3.35,3.27,3.21,3.15,6.44,6.32,9.66,9.5Z"/>
        <path class="cls-14" d="M294.03,380.38c-.6-.71-1.21-1.4-1.8-2.12.88.53,1.78,1.04,2.69,1.54,3.12-2.06,6.02-4.23,8.35-6.7-1.05-.08-2.09-.07-3.12-.02-8.59,5.26-17.14,10.46-25.67,15.57.92.89,1.84,1.8,2.76,2.7.08-.07.16-.13.25-.2,4.85-3.92,10.99-7.2,16.55-10.78Z"/>
        <path class="cls-4" d="M294.03,380.38c-.6-.71-1.21-1.4-1.8-2.12.88.53,1.78,1.04,2.69,1.54,3.12-2.06,6.02-4.23,8.35-6.7-1.05-.08-2.09-.07-3.12-.02-8.59,5.26-17.14,10.46-25.67,15.57.92.89,1.84,1.8,2.76,2.7.08-.07.16-.13.25-.2,4.85-3.92,10.99-7.2,16.55-10.78Z"/>
      </g>
    </g>
  </g>
</svg>