<?xml version="1.0" encoding="UTF-8"?>
<svg id="Layer_1" xmlns="http://www.w3.org/2000/svg" viewBox="0 0 1488.9 1661.26">
  <defs>
    <style>
      .cls-1 {
        fill: #bd945a;
      }

      .cls-1, .cls-2, .cls-3 {
        fill-rule: evenodd;
      }

      .cls-2 {
        fill: #f0f6ec;
      }

      .cls-3 {
        fill: #0b1107;
      }
    </style>
  </defs>
  <path class="cls-1" d="M1488.9,744.45C1488.9,333.3,1155.6,0,744.45,0S0,333.3,0,744.45s333.3,744.45,744.45,744.45,744.45-333.3,744.45-744.45"/>
  <path class="cls-3" d="M517.63,1197.75s-95.31-350.61,24.96-575.28c0,0-119.71,128.79-169.63,247.93,0,0-4.54-66.94,21.56-105.52,0,0-94.18,107.79-99.85,241.68,0,0-111.2-281.4,304.09-517.41,0,0-95.31,10.21-142.97,49.93,0,0,54.46-67.51,110.06-85.67,0,0-47.66-10.78-93.61,14.75,0,0,230.34-159.99,383.52-79.43,0,0,40.28,38.58,3.4,65.24,0,0,169.63-17.59,209.34,152.61,0,0,178.71,129.92,195.16,167.36,0,0-47.66,9.64-67.51-6.24,0,0-12.48,40.85,28.37,56.74-44.42,55.52-148.62,91.92-217.86,71.48,0,0,5.11,45.39,61.27,23.83,0,0,36.88-11.35,63.54-14.75,0,0,32.91,64.67-23.26,102.69-.29.36-14.97-27.67-59.77-44.75-61.42-23.43-155.25-7.33-191.35-61-36.18-53.79-3.94-170.85,45.18-212.52-80.07,35.99-136.25,88.87-121.1,161.4,40.96,196.12,313.67,60.78,308.32,258.43,0,0,43.12-77.16,82.83-99.85-.24-25.7-2.59-75.95,1.14-99.28,0,0,97.58-54.47,116.87-138.43,0,0-64.67-96.45-180.41-173.61,0,0-7.94-82.83-148.64-171.34-174.15-263.38-664.58,68.58-689.88,184.95,0,0,59-48.79,137.29-86.24-269.58,213.12-280.61,615.76-28.37,838.52,0,0-63.54-192.89-31.77-285.94,0,0,45.39,351.75,301.82,472.02,0,0-61.27-199.7-45.38-279.13,0,0,170.2,142.97,83.96,390.33,0,0,265.51-74.89,301.82-326.78,0,0,36.31,97.58,9.08,156.58,0,0,163.39-310.9-43.12-465.21,0,0,36.31,122.54-24.96,226.93,0,0-63.54-253.03-156.59-337,0,0,59,104.39,24.96,213.32,0,0-179.02-203.4-20.42-466.35,0,0-79.43,43.12-102.12,81.7,0,0,74.89-133.89,170.2-188.35-144.55,34.69-300.05,207.39-316.57,361.96,0,0,77.72-102.12,108.93-116.3,0,0-72.62,263.24,74.89,449.33,0,0-129.81-97.46-144.1-262.11,0,0-73.75,112.33-53.33,208.78"/>
  <path class="cls-3" d="M641.88,524.88s-12.48,77.16-7.94,107.79c0,0,63.54-97.58,90.77-112.9l-26.1,48.22c108.08-23.68,63.93-89.52,21.56-86.8,0,0,59-28.93,78.29,36.31l96.45-38.86c-92.74,12.48-210.7-152.87-253.03,46.24"/>
  <path class="cls-3" d="M909.23,594.1s66.94,57.3,115.74,57.3c0,0,55.31,43.4,102.12,63.83-23.23-24.56-100.26-93.19-123.11-126.8,0,0-50.49,7.94-94.74,5.67"/>
  <path class="cls-2" d="M724.71,519.77c-27.23,15.32-90.77,112.9-90.77,112.9-4.54-30.64,7.94-107.79,7.94-107.79,42.33-199.11,160.29-33.76,253.03-46.24l-96.45,38.86c-19.29-65.24-78.29-36.31-78.29-36.31,42.37-2.72,86.52,63.13-21.56,86.8l26.1-48.22ZM1024.97,651.4c-48.79,0-115.74-57.3-115.74-57.3,44.25,2.27,94.74-5.67,94.74-5.67,22.85,33.61,99.89,102.24,123.11,126.8-46.8-20.42-102.12-63.83-102.12-63.83ZM800.16,1129.1c34.04-108.93-24.96-213.32-24.96-213.32,93.04,83.96,156.59,337,156.59,337,61.27-104.39,24.96-226.93,24.96-226.93,0,0-27.16-49.83-53.69-57.82-55.62-15.14-106.05-41.43-121.88-117.21-15.15-72.53,41.03-125.41,121.1-161.4-49.11,41.67-81.36,158.73-45.18,212.52,36.1,53.67,129.93,37.57,191.35,61,44.8,17.09,59.49,45.11,59.77,44.75,56.17-38.01,23.26-102.69,23.26-102.69-26.66,3.4-63.54,14.75-63.54,14.75-56.16,21.56-61.27-23.83-61.27-23.83,69.24,20.43,173.44-15.96,217.86-71.48-40.85-15.89-28.37-56.74-28.37-56.74,19.86,15.89,67.51,6.24,67.51,6.24-16.45-37.44-195.16-167.36-195.16-167.36-39.71-170.2-209.34-152.61-209.34-152.61,36.88-26.66-3.4-65.24-3.4-65.24-153.18-80.56-383.52,79.43-383.52,79.43,45.96-25.53,93.61-14.75,93.61-14.75-55.6,18.15-110.06,85.67-110.06,85.67,47.65-39.71,142.97-49.93,142.97-49.93-415.29,236.01-304.09,517.41-304.09,517.41,5.67-133.89,99.85-241.68,99.85-241.68-26.1,38.58-21.56,105.52-21.56,105.52,49.92-119.14,169.63-247.93,169.63-247.93-120.28,224.66-24.96,575.28-24.96,575.28-20.43-96.45,53.33-208.78,53.33-208.78,14.3,164.64,144.1,262.11,144.1,262.11-147.51-186.09-74.89-449.33-74.89-449.33-31.2,14.18-108.93,116.3-108.93,116.3,16.52-154.57,172.02-327.27,316.57-361.96-95.31,54.46-170.2,188.35-170.2,188.35,22.69-38.58,102.12-81.7,102.12-81.7-158.59,262.95,20.42,466.35,20.42,466.35Z"/>
</svg>